<?xml version="1.0" encoding="UTF-8" standalone="no"?>
<!DOCTYPE svg PUBLIC "-//W3C//DTD SVG 1.1//EN"
 "http://www.w3.org/Graphics/SVG/1.1/DTD/svg11.dtd">
<!-- Generated by graphviz version 2.40.1 (20161225.0304)
 -->
<!-- Title: packages_SimpleGUICS2Pygame_all Pages: 1 -->
<svg width="2859pt" height="548pt"
 viewBox="0.00 0.00 2858.50 548.00" xmlns="http://www.w3.org/2000/svg" xmlns:xlink="http://www.w3.org/1999/xlink">
<g id="graph0" class="graph" transform="scale(1 1) rotate(0) translate(4 544)">
<title>packages_SimpleGUICS2Pygame_all</title>
<polygon fill="#ffffff" stroke="transparent" points="-4,4 -4,-544 2854.5,-544 2854.5,4 -4,4"/>
<!-- 0 -->
<g id="node1" class="node">
<title>0</title>
<polygon fill="none" stroke="#000000" points="954.5,-540 807.5,-540 807.5,-504 954.5,-504 954.5,-540"/>
<text text-anchor="middle" x="881" y="-518.3" font-family="Times,serif" font-size="14.00" fill="#000000">SimpleGUICS2Pygame</text>
</g>
<!-- 1 -->
<g id="node2" class="node">
<title>1</title>
<polygon fill="none" stroke="#000000" points="1334.5,-108 1113.5,-108 1113.5,-72 1334.5,-72 1334.5,-108"/>
<text text-anchor="middle" x="1224" y="-86.3" font-family="Times,serif" font-size="14.00" fill="#000000">SimpleGUICS2Pygame.codeskulptor</text>
</g>
<!-- 2 -->
<g id="node3" class="node">
<title>2</title>
<polygon fill="none" stroke="#000000" points="1345,-36 1103,-36 1103,0 1345,0 1345,-36"/>
<text text-anchor="middle" x="1224" y="-14.3" font-family="Times,serif" font-size="14.00" fill="#000000">SimpleGUICS2Pygame.codeskulptor_lib</text>
</g>
<!-- 2&#45;&gt;1 -->
<g id="edge1" class="edge">
<title>2&#45;&gt;1</title>
<path fill="none" stroke="#000000" d="M1224,-36.1686C1224,-43.869 1224,-53.0257 1224,-61.5834"/>
<polygon fill="#000000" stroke="#000000" points="1224,-71.5867 1219.5001,-61.5867 1224,-66.5867 1224.0001,-61.5867 1224.0001,-61.5867 1224.0001,-61.5867 1224,-66.5867 1228.5001,-61.5868 1224,-71.5867 1224,-71.5867"/>
</g>
<!-- 3 -->
<g id="node4" class="node">
<title>3</title>
<polygon fill="none" stroke="#000000" points="1559,-36 1363,-36 1363,0 1559,0 1559,-36"/>
<text text-anchor="middle" x="1461" y="-14.3" font-family="Times,serif" font-size="14.00" fill="#000000">SimpleGUICS2Pygame.numeric</text>
</g>
<!-- 4 -->
<g id="node5" class="node">
<title>4</title>
<polygon fill="none" stroke="#000000" points="1803,-36 1577,-36 1577,0 1803,0 1803,-36"/>
<text text-anchor="middle" x="1690" y="-14.3" font-family="Times,serif" font-size="14.00" fill="#000000">SimpleGUICS2Pygame.simplegui_lib</text>
</g>
<!-- 5 -->
<g id="node6" class="node">
<title>5</title>
<polygon fill="none" stroke="#000000" points="2081,-36 1821,-36 1821,0 2081,0 2081,-36"/>
<text text-anchor="middle" x="1951" y="-14.3" font-family="Times,serif" font-size="14.00" fill="#000000">SimpleGUICS2Pygame.simplegui_lib_draw</text>
</g>
<!-- 6 -->
<g id="node7" class="node">
<title>6</title>
<polygon fill="none" stroke="#000000" points="2348.5,-36 2099.5,-36 2099.5,0 2348.5,0 2348.5,-36"/>
<text text-anchor="middle" x="2224" y="-14.3" font-family="Times,serif" font-size="14.00" fill="#000000">SimpleGUICS2Pygame.simplegui_lib_fps</text>
</g>
<!-- 7 -->
<g id="node8" class="node">
<title>7</title>
<polygon fill="none" stroke="#000000" points="2623.5,-36 2366.5,-36 2366.5,0 2623.5,0 2623.5,-36"/>
<text text-anchor="middle" x="2495" y="-14.3" font-family="Times,serif" font-size="14.00" fill="#000000">SimpleGUICS2Pygame.simplegui_lib_keys</text>
</g>
<!-- 8 -->
<g id="node9" class="node">
<title>8</title>
<polygon fill="none" stroke="#000000" points="1085,-36 819,-36 819,0 1085,0 1085,-36"/>
<text text-anchor="middle" x="952" y="-14.3" font-family="Times,serif" font-size="14.00" fill="#000000">SimpleGUICS2Pygame.simplegui_lib_loader</text>
</g>
<!-- 9 -->
<g id="node10" class="node">
<title>9</title>
<polygon fill="none" stroke="#000000" points="1085,-108 819,-108 819,-72 1085,-72 1085,-108"/>
<text text-anchor="middle" x="952" y="-86.3" font-family="Times,serif" font-size="14.00" fill="#000000">SimpleGUICS2Pygame.simpleguics2pygame</text>
</g>
<!-- 8&#45;&gt;9 -->
<g id="edge2" class="edge">
<title>8&#45;&gt;9</title>
<path fill="none" stroke="#000000" d="M952,-36.1686C952,-43.869 952,-53.0257 952,-61.5834"/>
<polygon fill="#000000" stroke="#000000" points="952,-71.5867 947.5001,-61.5867 952,-66.5867 952.0001,-61.5867 952.0001,-61.5867 952.0001,-61.5867 952,-66.5867 956.5001,-61.5868 952,-71.5867 952,-71.5867"/>
</g>
<!-- 10 -->
<g id="node11" class="node">
<title>10</title>
<polygon fill="none" stroke="#000000" points="1048,-468 714,-468 714,-432 1048,-432 1048,-468"/>
<text text-anchor="middle" x="881" y="-446.3" font-family="Times,serif" font-size="14.00" fill="#000000">SimpleGUICS2Pygame.simpleguics2pygame._arguments</text>
</g>
<!-- 9&#45;&gt;10 -->
<g id="edge3" class="edge">
<title>9&#45;&gt;10</title>
<path fill="none" stroke="#000000" d="M818.8769,-96.5668C556.9777,-111.2741 0,-152.171 0,-234 0,-234 0,-234 0,-306 0,-376.6143 446.5229,-419.6689 703.7875,-438.6148"/>
<polygon fill="#000000" stroke="#000000" points="713.9956,-439.3613 703.694,-443.1199 709.0089,-438.9966 704.0223,-438.6319 704.0223,-438.6319 704.0223,-438.6319 709.0089,-438.9966 704.3505,-434.1439 713.9956,-439.3613 713.9956,-439.3613"/>
</g>
<!-- 15 -->
<g id="node16" class="node">
<title>15</title>
<polygon fill="none" stroke="#000000" points="707.5,-180 362.5,-180 362.5,-144 707.5,-144 707.5,-180"/>
<text text-anchor="middle" x="535" y="-158.3" font-family="Times,serif" font-size="14.00" fill="#000000">SimpleGUICS2Pygame.simpleguics2pygame._pygame_init</text>
</g>
<!-- 9&#45;&gt;15 -->
<g id="edge4" class="edge">
<title>9&#45;&gt;15</title>
<path fill="none" stroke="#000000" d="M847.5804,-108.0293C787.3642,-118.4263 711.5705,-131.513 649.6989,-142.1959"/>
<polygon fill="#000000" stroke="#000000" points="639.5002,-143.9568 648.5887,-137.8209 644.4273,-143.106 649.3544,-142.2553 649.3544,-142.2553 649.3544,-142.2553 644.4273,-143.106 650.1201,-146.6897 639.5002,-143.9568 639.5002,-143.9568"/>
</g>
<!-- 16 -->
<g id="node17" class="node">
<title>16</title>
<polygon fill="none" stroke="#000000" points="698.5,-252 391.5,-252 391.5,-216 698.5,-216 698.5,-252"/>
<text text-anchor="middle" x="545" y="-230.3" font-family="Times,serif" font-size="14.00" fill="#000000">SimpleGUICS2Pygame.simpleguics2pygame.canvas</text>
</g>
<!-- 9&#45;&gt;16 -->
<g id="edge5" class="edge">
<title>9&#45;&gt;16</title>
<path fill="none" stroke="#000000" d="M879.893,-108.1091C851.4952,-116.8118 819.2303,-128.7235 792,-144 770.2625,-156.195 771.1321,-168.5369 749,-180 720.8926,-194.5579 688.5211,-205.4402 657.9652,-213.4696"/>
<polygon fill="#000000" stroke="#000000" points="648.1159,-215.9773 656.6964,-209.149 652.9613,-214.7436 657.8067,-213.5098 657.8067,-213.5098 657.8067,-213.5098 652.9613,-214.7436 658.9171,-217.8707 648.1159,-215.9773 648.1159,-215.9773"/>
</g>
<!-- 17 -->
<g id="node18" class="node">
<title>17</title>
<polygon fill="none" stroke="#000000" points="336,-252 28,-252 28,-216 336,-216 336,-252"/>
<text text-anchor="middle" x="182" y="-230.3" font-family="Times,serif" font-size="14.00" fill="#000000">SimpleGUICS2Pygame.simpleguics2pygame.control</text>
</g>
<!-- 9&#45;&gt;17 -->
<g id="edge6" class="edge">
<title>9&#45;&gt;17</title>
<path fill="none" stroke="#000000" d="M838.8847,-108.0449C808.2796,-116.0673 776.1408,-127.5675 749,-144 730.4328,-155.2415 735.4269,-170.3198 716,-180 643.7779,-215.9875 439.7448,-207.9552 346.4324,-215.5572"/>
<polygon fill="#000000" stroke="#000000" points="336.4179,-216.4811 345.9621,-211.0813 341.3967,-216.0217 346.3756,-215.5623 346.3756,-215.5623 346.3756,-215.5623 341.3967,-216.0217 346.789,-220.0433 336.4179,-216.4811 336.4179,-216.4811"/>
</g>
<!-- 18 -->
<g id="node19" class="node">
<title>18</title>
<polygon fill="none" stroke="#000000" points="1103,-180 801,-180 801,-144 1103,-144 1103,-180"/>
<text text-anchor="middle" x="952" y="-158.3" font-family="Times,serif" font-size="14.00" fill="#000000">SimpleGUICS2Pygame.simpleguics2pygame.frame</text>
</g>
<!-- 9&#45;&gt;18 -->
<g id="edge7" class="edge">
<title>9&#45;&gt;18</title>
<path fill="none" stroke="#000000" d="M946.0476,-108.1686C945.2972,-115.869 945.0763,-125.0257 945.3849,-133.5834"/>
<polygon fill="#000000" stroke="#000000" points="946.024,-143.5867 940.8955,-133.894 945.7052,-138.5969 945.3863,-133.6071 945.3863,-133.6071 945.3863,-133.6071 945.7052,-138.5969 949.8772,-133.3201 946.024,-143.5867 946.024,-143.5867"/>
</g>
<!-- 19 -->
<g id="node20" class="node">
<title>19</title>
<polygon fill="none" stroke="#000000" points="1150,-324 846,-324 846,-288 1150,-288 1150,-324"/>
<text text-anchor="middle" x="998" y="-302.3" font-family="Times,serif" font-size="14.00" fill="#000000">SimpleGUICS2Pygame.simpleguics2pygame.image</text>
</g>
<!-- 9&#45;&gt;19 -->
<g id="edge8" class="edge">
<title>9&#45;&gt;19</title>
<path fill="none" stroke="#000000" d="M1066.3995,-108.0109C1221.7072,-133.6155 1483.2348,-181.2799 1511,-216 1520.9927,-228.4958 1521.7052,-240.1088 1511,-252 1505.0421,-258.618 1308.3606,-277.866 1160.3118,-291.4898"/>
<polygon fill="#000000" stroke="#000000" points="1150.1865,-292.4198 1159.733,-287.024 1155.1656,-291.9625 1160.1446,-291.5051 1160.1446,-291.5051 1160.1446,-291.5051 1155.1656,-291.9625 1160.5562,-295.9862 1150.1865,-292.4198 1150.1865,-292.4198"/>
</g>
<!-- 20 -->
<g id="node21" class="node">
<title>20</title>
<polygon fill="none" stroke="#000000" points="1501.5,-252 1206.5,-252 1206.5,-216 1501.5,-216 1501.5,-252"/>
<text text-anchor="middle" x="1354" y="-230.3" font-family="Times,serif" font-size="14.00" fill="#000000">SimpleGUICS2Pygame.simpleguics2pygame.keys</text>
</g>
<!-- 9&#45;&gt;20 -->
<g id="edge9" class="edge">
<title>9&#45;&gt;20</title>
<path fill="none" stroke="#000000" d="M1006.9409,-108.0818C1037.8808,-118.3799 1077.1845,-131.6542 1112,-144 1175.7676,-166.6125 1248.4664,-193.8468 1297.3974,-212.3922"/>
<polygon fill="#000000" stroke="#000000" points="1306.8569,-215.9815 1295.9109,-216.6412 1302.1821,-214.2077 1297.5073,-212.4339 1297.5073,-212.4339 1297.5073,-212.4339 1302.1821,-214.2077 1299.1038,-208.2266 1306.8569,-215.9815 1306.8569,-215.9815"/>
</g>
<!-- 21 -->
<g id="node22" class="node">
<title>21</title>
<polygon fill="none" stroke="#000000" points="1546,-324 1244,-324 1244,-288 1546,-288 1546,-324"/>
<text text-anchor="middle" x="1395" y="-302.3" font-family="Times,serif" font-size="14.00" fill="#000000">SimpleGUICS2Pygame.simpleguics2pygame.sound</text>
</g>
<!-- 9&#45;&gt;21 -->
<g id="edge10" class="edge">
<title>9&#45;&gt;21</title>
<path fill="none" stroke="#000000" d="M1085.0614,-106.0109C1091.801,-106.7101 1098.4769,-107.3779 1105,-108 1275.2533,-124.2357 1762.805,-80.3786 1867,-216 1876.7478,-228.6878 1877.6513,-240.0606 1867,-252 1846.2177,-275.2955 1684.9298,-289.9239 1556.5968,-297.9889"/>
<polygon fill="#000000" stroke="#000000" points="1546.2465,-298.6297 1555.9493,-293.5202 1551.237,-298.3207 1556.2274,-298.0116 1556.2274,-298.0116 1556.2274,-298.0116 1551.237,-298.3207 1556.5055,-302.503 1546.2465,-298.6297 1546.2465,-298.6297"/>
</g>
<!-- 22 -->
<g id="node23" class="node">
<title>22</title>
<polygon fill="none" stroke="#000000" points="1857.5,-252 1558.5,-252 1558.5,-216 1857.5,-216 1857.5,-252"/>
<text text-anchor="middle" x="1708" y="-230.3" font-family="Times,serif" font-size="14.00" fill="#000000">SimpleGUICS2Pygame.simpleguics2pygame.timer</text>
</g>
<!-- 9&#45;&gt;22 -->
<g id="edge11" class="edge">
<title>9&#45;&gt;22</title>
<path fill="none" stroke="#000000" d="M1085.0682,-105.9407C1091.8061,-106.6583 1098.4797,-107.3493 1105,-108 1299.7985,-127.4398 1356.5131,-87.6707 1544,-144 1592.4753,-158.5641 1642.7096,-188.7507 1674.5956,-210.1408"/>
<polygon fill="#000000" stroke="#000000" points="1683.0858,-215.9204 1672.287,-214.013 1678.9525,-213.1068 1674.8193,-210.2931 1674.8193,-210.2931 1674.8193,-210.2931 1678.9525,-213.1068 1677.3516,-206.5732 1683.0858,-215.9204 1683.0858,-215.9204"/>
</g>
<!-- 10&#45;&gt;0 -->
<g id="edge12" class="edge">
<title>10&#45;&gt;0</title>
<path fill="none" stroke="#000000" d="M881,-468.1686C881,-475.869 881,-485.0257 881,-493.5834"/>
<polygon fill="#000000" stroke="#000000" points="881,-503.5867 876.5001,-493.5867 881,-498.5867 881.0001,-493.5867 881.0001,-493.5867 881.0001,-493.5867 881,-498.5867 885.5001,-493.5868 881,-503.5867 881,-503.5867"/>
</g>
<!-- 11 -->
<g id="node12" class="node">
<title>11</title>
<polygon fill="none" stroke="#000000" points="414,-324 104,-324 104,-288 414,-288 414,-324"/>
<text text-anchor="middle" x="259" y="-302.3" font-family="Times,serif" font-size="14.00" fill="#000000">SimpleGUICS2Pygame.simpleguics2pygame._colors</text>
</g>
<!-- 12 -->
<g id="node13" class="node">
<title>12</title>
<polygon fill="none" stroke="#000000" points="736,-324 432,-324 432,-288 736,-288 736,-324"/>
<text text-anchor="middle" x="584" y="-302.3" font-family="Times,serif" font-size="14.00" fill="#000000">SimpleGUICS2Pygame.simpleguics2pygame._fonts</text>
</g>
<!-- 12&#45;&gt;10 -->
<g id="edge13" class="edge">
<title>12&#45;&gt;10</title>
<path fill="none" stroke="#000000" d="M615.0034,-324.0915C647.972,-343.0246 701.8911,-373.1216 750,-396 774.0161,-407.421 801.1096,-418.8257 824.3986,-428.1913"/>
<polygon fill="#000000" stroke="#000000" points="833.7901,-431.9409 822.8344,-432.4121 829.1466,-430.0869 824.503,-428.2329 824.503,-428.2329 824.503,-428.2329 829.1466,-430.0869 826.1716,-424.0537 833.7901,-431.9409 833.7901,-431.9409"/>
</g>
<!-- 13 -->
<g id="node14" class="node">
<title>13</title>
<polygon fill="none" stroke="#000000" points="1111.5,-252 792.5,-252 792.5,-216 1111.5,-216 1111.5,-252"/>
<text text-anchor="middle" x="952" y="-230.3" font-family="Times,serif" font-size="14.00" fill="#000000">SimpleGUICS2Pygame.simpleguics2pygame._joypads</text>
</g>
<!-- 14 -->
<g id="node15" class="node">
<title>14</title>
<polygon fill="none" stroke="#000000" points="1170.5,-396 859.5,-396 859.5,-360 1170.5,-360 1170.5,-396"/>
<text text-anchor="middle" x="1015" y="-374.3" font-family="Times,serif" font-size="14.00" fill="#000000">SimpleGUICS2Pygame.simpleguics2pygame._media</text>
</g>
<!-- 14&#45;&gt;10 -->
<g id="edge14" class="edge">
<title>14&#45;&gt;10</title>
<path fill="none" stroke="#000000" d="M981.1861,-396.1686C963.7293,-405.5484 942.2513,-417.0888 923.6648,-427.0756"/>
<polygon fill="#000000" stroke="#000000" points="914.803,-431.8372 921.482,-423.1399 919.2075,-429.4706 923.612,-427.104 923.612,-427.104 923.612,-427.104 919.2075,-429.4706 925.7419,-431.068 914.803,-431.8372 914.803,-431.8372"/>
</g>
<!-- 16&#45;&gt;11 -->
<g id="edge15" class="edge">
<title>16&#45;&gt;11</title>
<path fill="none" stroke="#000000" d="M473.1993,-252.0757C432.9115,-262.2181 382.501,-274.9088 340.7064,-285.4306"/>
<polygon fill="#000000" stroke="#000000" points="330.8303,-287.9169 339.4291,-281.1116 335.679,-286.6962 340.5277,-285.4755 340.5277,-285.4755 340.5277,-285.4755 335.679,-286.6962 341.6263,-289.8393 330.8303,-287.9169 330.8303,-287.9169"/>
</g>
<!-- 16&#45;&gt;12 -->
<g id="edge16" class="edge">
<title>16&#45;&gt;12</title>
<path fill="none" stroke="#000000" d="M554.8413,-252.1686C559.1957,-260.2075 564.4098,-269.8334 569.2169,-278.7082"/>
<polygon fill="#000000" stroke="#000000" points="574.0261,-287.5867 565.3064,-280.9371 571.6447,-283.1903 569.2633,-278.7938 569.2633,-278.7938 569.2633,-278.7938 571.6447,-283.1903 573.2201,-276.6505 574.0261,-287.5867 574.0261,-287.5867"/>
</g>
<!-- 16&#45;&gt;19 -->
<g id="edge17" class="edge">
<title>16&#45;&gt;19</title>
<path fill="none" stroke="#000000" d="M658.4343,-252.0293C724.1187,-262.4692 806.8654,-275.621 874.2298,-286.3279"/>
<polygon fill="#000000" stroke="#000000" points="884.4782,-287.9568 873.8957,-290.8312 879.5402,-287.1719 874.6022,-286.387 874.6022,-286.387 874.6022,-286.387 879.5402,-287.1719 875.3086,-281.9428 884.4782,-287.9568 884.4782,-287.9568"/>
</g>
<!-- 17&#45;&gt;11 -->
<g id="edge18" class="edge">
<title>17&#45;&gt;11</title>
<path fill="none" stroke="#000000" d="M201.4304,-252.1686C210.732,-260.8663 222.0204,-271.4217 232.1286,-280.8735"/>
<polygon fill="#000000" stroke="#000000" points="239.5759,-287.8372 229.1981,-284.2941 235.9237,-284.4222 232.2716,-281.0072 232.2716,-281.0072 232.2716,-281.0072 235.9237,-284.4222 235.3451,-277.7203 239.5759,-287.8372 239.5759,-287.8372"/>
</g>
<!-- 17&#45;&gt;12 -->
<g id="edge19" class="edge">
<title>17&#45;&gt;12</title>
<path fill="none" stroke="#000000" d="M282.6635,-252.0293C340.594,-262.4049 413.4797,-275.4591 473.0579,-286.1298"/>
<polygon fill="#000000" stroke="#000000" points="483.2588,-287.9568 472.622,-290.6232 478.3371,-287.0753 473.4154,-286.1937 473.4154,-286.1937 473.4154,-286.1937 478.3371,-287.0753 474.2088,-281.7642 483.2588,-287.9568 483.2588,-287.9568"/>
</g>
<!-- 18&#45;&gt;9 -->
<g id="edge20" class="edge">
<title>18&#45;&gt;9</title>
<path fill="none" stroke="#000000" d="M957.976,-143.5867C958.7071,-135.9407 958.9203,-126.8916 958.6155,-118.4274"/>
<polygon fill="#000000" stroke="#000000" points="957.9524,-108.1686 963.0881,-117.8575 958.2749,-113.1582 958.5975,-118.1478 958.5975,-118.1478 958.5975,-118.1478 958.2749,-113.1582 954.1069,-118.4381 957.9524,-108.1686 957.9524,-108.1686"/>
</g>
<!-- 18&#45;&gt;10 -->
<g id="edge21" class="edge">
<title>18&#45;&gt;10</title>
<path fill="none" stroke="#000000" d="M864.1772,-180.0823C828.6098,-189.3473 793.4452,-201.697 783,-216 733.7677,-283.4156 811.1545,-379.2731 854.6567,-424.5035"/>
<polygon fill="#000000" stroke="#000000" points="861.8354,-431.8298 851.6224,-427.8366 858.336,-428.2585 854.8366,-424.6871 854.8366,-424.6871 854.8366,-424.6871 858.336,-428.2585 858.0508,-421.5377 861.8354,-431.8298 861.8354,-431.8298"/>
</g>
<!-- 18&#45;&gt;11 -->
<g id="edge22" class="edge">
<title>18&#45;&gt;11</title>
<path fill="none" stroke="#000000" d="M800.9014,-175.7077C633.6483,-190.969 386.765,-213.7969 382,-216 361.1744,-225.6288 363.038,-237.8208 345,-252 331.1116,-262.9174 314.9196,-273.5615 300.3552,-282.4736"/>
<polygon fill="#000000" stroke="#000000" points="291.5323,-287.7858 297.7782,-278.7725 295.8158,-285.2067 300.0993,-282.6276 300.0993,-282.6276 300.0993,-282.6276 295.8158,-285.2067 302.4205,-286.4828 291.5323,-287.7858 291.5323,-287.7858"/>
</g>
<!-- 18&#45;&gt;12 -->
<g id="edge23" class="edge">
<title>18&#45;&gt;12</title>
<path fill="none" stroke="#000000" d="M850.4127,-180.0233C817.2507,-188.2642 781.0055,-199.8929 750,-216 727.8819,-227.4902 728.1787,-238.8586 707,-252 687.1517,-264.3158 664.0062,-275.2607 643.182,-284.022"/>
<polygon fill="#000000" stroke="#000000" points="633.7976,-287.891 641.3275,-279.9191 638.4202,-285.9852 643.0427,-284.0794 643.0427,-284.0794 643.0427,-284.0794 638.4202,-285.9852 644.7579,-288.2397 633.7976,-287.891 633.7976,-287.891"/>
</g>
<!-- 18&#45;&gt;13 -->
<g id="edge24" class="edge">
<title>18&#45;&gt;13</title>
<path fill="none" stroke="#000000" d="M952,-180.1686C952,-187.869 952,-197.0257 952,-205.5834"/>
<polygon fill="#000000" stroke="#000000" points="952,-215.5867 947.5001,-205.5867 952,-210.5867 952.0001,-205.5867 952.0001,-205.5867 952.0001,-205.5867 952,-210.5867 956.5001,-205.5868 952,-215.5867 952,-215.5867"/>
</g>
<!-- 18&#45;&gt;14 -->
<g id="edge25" class="edge">
<title>18&#45;&gt;14</title>
<path fill="none" stroke="#000000" d="M1044.1443,-180.0566C1083.6921,-189.5188 1124.0227,-202.04 1138,-216 1161.5848,-239.5556 1154.286,-255.0017 1159,-288 1161.2627,-303.8392 1168.1135,-310.8492 1159,-324 1150.6994,-335.9778 1123.2951,-347.5592 1094.5884,-356.9044"/>
<polygon fill="#000000" stroke="#000000" points="1084.8288,-359.9853 1093.0103,-352.6836 1089.5969,-358.4801 1094.365,-356.9749 1094.365,-356.9749 1094.365,-356.9749 1089.5969,-358.4801 1095.7196,-361.2662 1084.8288,-359.9853 1084.8288,-359.9853"/>
</g>
<!-- 18&#45;&gt;16 -->
<g id="edge26" class="edge">
<title>18&#45;&gt;16</title>
<path fill="none" stroke="#000000" d="M850.0844,-180.0293C791.3123,-190.4263 717.3362,-203.513 656.9483,-214.1959"/>
<polygon fill="#000000" stroke="#000000" points="646.9942,-215.9568 656.0574,-209.7835 651.9178,-215.0858 656.8413,-214.2147 656.8413,-214.2147 656.8413,-214.2147 651.9178,-215.0858 657.6253,-218.6459 646.9942,-215.9568 646.9942,-215.9568"/>
</g>
<!-- 18&#45;&gt;17 -->
<g id="edge27" class="edge">
<title>18&#45;&gt;17</title>
<path fill="none" stroke="#000000" d="M800.8525,-175.4209C637.2252,-189.9718 393.6644,-211.7028 350,-216 348.8688,-216.1113 347.7333,-216.2234 346.594,-216.3362"/>
<polygon fill="#000000" stroke="#000000" points="336.2464,-217.369 345.75,-211.898 341.2217,-216.8724 346.197,-216.3757 346.197,-216.3757 346.197,-216.3757 341.2217,-216.8724 346.644,-220.8535 336.2464,-217.369 336.2464,-217.369"/>
</g>
<!-- 18&#45;&gt;19 -->
<g id="edge28" class="edge">
<title>18&#45;&gt;19</title>
<path fill="none" stroke="#000000" d="M1039.8228,-180.0823C1075.3902,-189.3473 1110.5548,-201.697 1121,-216 1130.4362,-228.9213 1129.749,-238.6039 1121,-252 1112.0762,-265.6636 1098.8407,-275.8922 1084.3174,-283.5428"/>
<polygon fill="#000000" stroke="#000000" points="1075.1352,-287.9809 1082.1804,-279.5775 1079.6369,-285.805 1084.1387,-283.6291 1084.1387,-283.6291 1084.1387,-283.6291 1079.6369,-285.805 1086.097,-287.6807 1075.1352,-287.9809 1075.1352,-287.9809"/>
</g>
<!-- 18&#45;&gt;20 -->
<g id="edge29" class="edge">
<title>18&#45;&gt;20</title>
<path fill="none" stroke="#000000" d="M1052.6635,-180.0293C1110.594,-190.4049 1183.4797,-203.4591 1243.0579,-214.1298"/>
<polygon fill="#000000" stroke="#000000" points="1253.2588,-215.9568 1242.622,-218.6232 1248.3371,-215.0753 1243.4154,-214.1937 1243.4154,-214.1937 1243.4154,-214.1937 1248.3371,-215.0753 1244.2088,-209.7642 1253.2588,-215.9568 1253.2588,-215.9568"/>
</g>
<!-- 18&#45;&gt;22 -->
<g id="edge30" class="edge">
<title>18&#45;&gt;22</title>
<path fill="none" stroke="#000000" d="M1103.1709,-176.3972C1232.0979,-188.676 1416.8915,-206.2754 1548.2272,-218.7835"/>
<polygon fill="#000000" stroke="#000000" points="1558.3812,-219.7506 1547.9995,-223.2821 1553.4037,-219.2765 1548.4262,-218.8024 1548.4262,-218.8024 1548.4262,-218.8024 1553.4037,-219.2765 1548.8529,-214.3227 1558.3812,-219.7506 1558.3812,-219.7506"/>
</g>
<!-- 19&#45;&gt;14 -->
<g id="edge31" class="edge">
<title>19&#45;&gt;14</title>
<path fill="none" stroke="#000000" d="M1002.2898,-324.1686C1004.108,-331.869 1006.2699,-341.0257 1008.2905,-349.5834"/>
<polygon fill="#000000" stroke="#000000" points="1010.6524,-359.5867 1003.9748,-350.8884 1009.5034,-354.7205 1008.3544,-349.8543 1008.3544,-349.8543 1008.3544,-349.8543 1009.5034,-354.7205 1012.734,-348.8202 1010.6524,-359.5867 1010.6524,-359.5867"/>
</g>
<!-- 21&#45;&gt;10 -->
<g id="edge32" class="edge">
<title>21&#45;&gt;10</title>
<path fill="none" stroke="#000000" d="M1368.6008,-324.1762C1337.0836,-344.957 1282.0784,-378.3694 1230,-396 1175.4896,-414.4539 1114.0338,-426.6349 1058.0539,-434.6622"/>
<polygon fill="#000000" stroke="#000000" points="1048.0325,-436.0636 1057.3129,-430.2219 1052.9843,-435.3711 1057.9361,-434.6785 1057.9361,-434.6785 1057.9361,-434.6785 1052.9843,-435.3711 1058.5594,-439.1352 1048.0325,-436.0636 1048.0325,-436.0636"/>
</g>
<!-- 21&#45;&gt;14 -->
<g id="edge33" class="edge">
<title>21&#45;&gt;14</title>
<path fill="none" stroke="#000000" d="M1299.6004,-324.0757C1244.9511,-334.4303 1176.2833,-347.4411 1120.0902,-358.0882"/>
<polygon fill="#000000" stroke="#000000" points="1110.1092,-359.9793 1119.0966,-353.6963 1115.0218,-359.0485 1119.9344,-358.1176 1119.9344,-358.1176 1119.9344,-358.1176 1115.0218,-359.0485 1120.7721,-362.539 1110.1092,-359.9793 1110.1092,-359.9793"/>
</g>
<!-- 22&#45;&gt;10 -->
<g id="edge34" class="edge">
<title>22&#45;&gt;10</title>
<path fill="none" stroke="#000000" d="M1558.3215,-249.3997C1422.2924,-263.6511 1241.7423,-283.3205 1235,-288 1190.748,-318.7131 1223.2306,-363.8652 1180,-396 1159.2692,-411.41 1110.6387,-422.9326 1058.4899,-431.2868"/>
<polygon fill="#000000" stroke="#000000" points="1048.3697,-432.8628 1057.5582,-426.8776 1053.3102,-432.0934 1058.2506,-431.324 1058.2506,-431.324 1058.2506,-431.324 1053.3102,-432.0934 1058.9431,-435.7704 1048.3697,-432.8628 1048.3697,-432.8628"/>
</g>
<!-- 23 -->
<g id="node24" class="node">
<title>23</title>
<polygon fill="none" stroke="#000000" points="2850.5,-36 2641.5,-36 2641.5,0 2850.5,0 2850.5,-36"/>
<text text-anchor="middle" x="2746" y="-14.3" font-family="Times,serif" font-size="14.00" fill="#000000">SimpleGUICS2Pygame.simpleplot</text>
</g>
</g>
</svg>
