<?xml version="1.0" encoding="UTF-8" standalone="no"?>
<!DOCTYPE svg PUBLIC "-//W3C//DTD SVG 1.1//EN"
 "http://www.w3.org/Graphics/SVG/1.1/DTD/svg11.dtd">
<!-- Generated by graphviz version 2.40.1 (20161225.0304)
 -->
<!-- Title: G Pages: 1 -->
<svg width="1197pt" height="786pt"
 viewBox="0.00 0.00 1197.10 786.19" xmlns="http://www.w3.org/2000/svg" xmlns:xlink="http://www.w3.org/1999/xlink">
<g id="graph0" class="graph" transform="scale(1 1) rotate(0) translate(4 782.193)">
<title>G</title><style>.edge>path:hover{stroke-width:8}</style>
<polygon fill="#ffffff" stroke="transparent" points="-4,4 -4,-782.193 1193.1001,-782.193 1193.1001,4 -4,4"/>
<!-- SimpleGUICS2Pygame_simplegui_lib -->
<g id="node1" class="node">
<title>SimpleGUICS2Pygame_simplegui_lib</title><style>.edge>path:hover{stroke-width:8}</style>
<ellipse fill="#964040" stroke="#000000" cx="774.9063" cy="-21.2132" rx="86.9483" ry="21.4286"/>
<text text-anchor="middle" x="774.9063" y="-24.2132" font-family="Helvetica,sans-Serif" font-size="10.00" fill="#ffffff">SimpleGUICS2Pygame.</text>
<text text-anchor="middle" x="774.9063" y="-13.2132" font-family="Helvetica,sans-Serif" font-size="10.00" fill="#ffffff">simplegui_lib</text>
</g>
<!-- SimpleGUICS2Pygame_simplegui_lib_draw -->
<g id="node2" class="node">
<title>SimpleGUICS2Pygame_simplegui_lib_draw</title><style>.edge>path:hover{stroke-width:8}</style>
<ellipse fill="#b83d3d" stroke="#000000" cx="486.9063" cy="-99.6396" rx="86.9483" ry="21.4286"/>
<text text-anchor="middle" x="486.9063" y="-102.6396" font-family="Helvetica,sans-Serif" font-size="10.00" fill="#ffffff">SimpleGUICS2Pygame.</text>
<text text-anchor="middle" x="486.9063" y="-91.6396" font-family="Helvetica,sans-Serif" font-size="10.00" fill="#ffffff">simplegui_lib_draw</text>
</g>
<!-- SimpleGUICS2Pygame_simplegui_lib_draw&#45;&gt;SimpleGUICS2Pygame_simplegui_lib -->
<g id="edge1" class="edge">
<title>SimpleGUICS2Pygame_simplegui_lib_draw&#45;&gt;SimpleGUICS2Pygame_simplegui_lib</title><style>.edge>path:hover{stroke-width:8}</style>
<path fill="none" stroke="#000000" d="M545.1874,-83.7689C591.9336,-71.0392 657.6284,-53.1496 706.7967,-39.7604"/>
<polygon fill="#b83d3d" stroke="#000000" points="707.9829,-43.0649 716.7119,-37.0604 706.1436,-36.3109 707.9829,-43.0649"/>
</g>
<!-- SimpleGUICS2Pygame_simplegui_lib_fps -->
<g id="node3" class="node">
<title>SimpleGUICS2Pygame_simplegui_lib_fps</title><style>.edge>path:hover{stroke-width:8}</style>
<ellipse fill="#b83d3d" stroke="#000000" cx="678.9063" cy="-99.6396" rx="86.9483" ry="21.4286"/>
<text text-anchor="middle" x="678.9063" y="-102.6396" font-family="Helvetica,sans-Serif" font-size="10.00" fill="#ffffff">SimpleGUICS2Pygame.</text>
<text text-anchor="middle" x="678.9063" y="-91.6396" font-family="Helvetica,sans-Serif" font-size="10.00" fill="#ffffff">simplegui_lib_fps</text>
</g>
<!-- SimpleGUICS2Pygame_simplegui_lib_fps&#45;&gt;SimpleGUICS2Pygame_simplegui_lib -->
<g id="edge2" class="edge">
<title>SimpleGUICS2Pygame_simplegui_lib_fps&#45;&gt;SimpleGUICS2Pygame_simplegui_lib</title><style>.edge>path:hover{stroke-width:8}</style>
<path fill="none" stroke="#000000" d="M703.8786,-79.2387C715.4541,-69.7822 729.3711,-58.4128 741.8069,-48.2535"/>
<polygon fill="#b83d3d" stroke="#000000" points="744.1956,-50.8216 749.7256,-41.7844 739.767,-45.4005 744.1956,-50.8216"/>
</g>
<!-- SimpleGUICS2Pygame_simplegui_lib_keys -->
<g id="node4" class="node">
<title>SimpleGUICS2Pygame_simplegui_lib_keys</title><style>.edge>path:hover{stroke-width:8}</style>
<ellipse fill="#b83d3d" stroke="#000000" cx="870.9063" cy="-99.6396" rx="86.9483" ry="21.4286"/>
<text text-anchor="middle" x="870.9063" y="-102.6396" font-family="Helvetica,sans-Serif" font-size="10.00" fill="#ffffff">SimpleGUICS2Pygame.</text>
<text text-anchor="middle" x="870.9063" y="-91.6396" font-family="Helvetica,sans-Serif" font-size="10.00" fill="#ffffff">simplegui_lib_keys</text>
</g>
<!-- SimpleGUICS2Pygame_simplegui_lib_keys&#45;&gt;SimpleGUICS2Pygame_simplegui_lib -->
<g id="edge3" class="edge">
<title>SimpleGUICS2Pygame_simplegui_lib_keys&#45;&gt;SimpleGUICS2Pygame_simplegui_lib</title><style>.edge>path:hover{stroke-width:8}</style>
<path fill="none" stroke="#000000" d="M845.9341,-79.2387C834.3586,-69.7822 820.4415,-58.4128 808.0057,-48.2535"/>
<polygon fill="#b83d3d" stroke="#000000" points="810.0457,-45.4005 800.0871,-41.7844 805.617,-50.8216 810.0457,-45.4005"/>
</g>
<!-- SimpleGUICS2Pygame_simplegui_lib_loader -->
<g id="node5" class="node">
<title>SimpleGUICS2Pygame_simplegui_lib_loader</title><style>.edge>path:hover{stroke-width:8}</style>
<ellipse fill="#b83d3d" stroke="#000000" cx="1062.9063" cy="-99.6396" rx="86.9483" ry="21.4286"/>
<text text-anchor="middle" x="1062.9063" y="-102.6396" font-family="Helvetica,sans-Serif" font-size="10.00" fill="#ffffff">SimpleGUICS2Pygame.</text>
<text text-anchor="middle" x="1062.9063" y="-91.6396" font-family="Helvetica,sans-Serif" font-size="10.00" fill="#ffffff">simplegui_lib_loader</text>
</g>
<!-- SimpleGUICS2Pygame_simplegui_lib_loader&#45;&gt;SimpleGUICS2Pygame_simplegui_lib -->
<g id="edge4" class="edge">
<title>SimpleGUICS2Pygame_simplegui_lib_loader&#45;&gt;SimpleGUICS2Pygame_simplegui_lib</title><style>.edge>path:hover{stroke-width:8}</style>
<path fill="none" stroke="#000000" d="M1004.6252,-83.7689C957.879,-71.0392 892.1842,-53.1496 843.016,-39.7604"/>
<polygon fill="#b83d3d" stroke="#000000" points="843.669,-36.3109 833.1007,-37.0604 841.8298,-43.0649 843.669,-36.3109"/>
</g>
<!-- SimpleGUICS2Pygame_simpleguics2pygame -->
<g id="node6" class="node">
<title>SimpleGUICS2Pygame_simpleguics2pygame</title><style>.edge>path:hover{stroke-width:8}</style>
<ellipse fill="#950303" stroke="#000000" cx="774.9063" cy="-178.066" rx="86.9483" ry="21.4286"/>
<text text-anchor="middle" x="774.9063" y="-181.066" font-family="Helvetica,sans-Serif" font-size="10.00" fill="#ffffff">SimpleGUICS2Pygame.</text>
<text text-anchor="middle" x="774.9063" y="-170.066" font-family="Helvetica,sans-Serif" font-size="10.00" fill="#ffffff">simpleguics2pygame</text>
</g>
<!-- SimpleGUICS2Pygame_simpleguics2pygame&#45;&gt;SimpleGUICS2Pygame_simplegui_lib_draw -->
<g id="edge5" class="edge">
<title>SimpleGUICS2Pygame_simpleguics2pygame&#45;&gt;SimpleGUICS2Pygame_simplegui_lib_draw</title><style>.edge>path:hover{stroke-width:8}</style>
<path fill="none" stroke="#000000" d="M716.6252,-162.1953C669.879,-149.4656 604.1842,-131.576 555.016,-118.1868"/>
<polygon fill="#950303" stroke="#000000" points="555.669,-114.7373 545.1007,-115.4868 553.8298,-121.4913 555.669,-114.7373"/>
</g>
<!-- SimpleGUICS2Pygame_simpleguics2pygame&#45;&gt;SimpleGUICS2Pygame_simplegui_lib_fps -->
<g id="edge6" class="edge">
<title>SimpleGUICS2Pygame_simpleguics2pygame&#45;&gt;SimpleGUICS2Pygame_simplegui_lib_fps</title><style>.edge>path:hover{stroke-width:8}</style>
<path fill="none" stroke="#000000" d="M749.9341,-157.6651C738.3586,-148.2086 724.4415,-136.8392 712.0057,-126.6799"/>
<polygon fill="#950303" stroke="#000000" points="714.0457,-123.827 704.0871,-120.2108 709.617,-129.248 714.0457,-123.827"/>
</g>
<!-- SimpleGUICS2Pygame_simpleguics2pygame&#45;&gt;SimpleGUICS2Pygame_simplegui_lib_keys -->
<g id="edge7" class="edge">
<title>SimpleGUICS2Pygame_simpleguics2pygame&#45;&gt;SimpleGUICS2Pygame_simplegui_lib_keys</title><style>.edge>path:hover{stroke-width:8}</style>
<path fill="none" stroke="#000000" d="M799.8786,-157.6651C811.4541,-148.2086 825.3711,-136.8392 837.8069,-126.6799"/>
<polygon fill="#950303" stroke="#000000" points="840.1956,-129.248 845.7256,-120.2108 835.767,-123.827 840.1956,-129.248"/>
</g>
<!-- SimpleGUICS2Pygame_simpleguics2pygame&#45;&gt;SimpleGUICS2Pygame_simplegui_lib_loader -->
<g id="edge8" class="edge">
<title>SimpleGUICS2Pygame_simpleguics2pygame&#45;&gt;SimpleGUICS2Pygame_simplegui_lib_loader</title><style>.edge>path:hover{stroke-width:8}</style>
<path fill="none" stroke="#000000" d="M833.1874,-162.1953C879.9336,-149.4656 945.6284,-131.576 994.7967,-118.1868"/>
<polygon fill="#950303" stroke="#000000" points="995.9829,-121.4913 1004.7119,-115.4868 994.1436,-114.7373 995.9829,-121.4913"/>
</g>
<!-- SimpleGUICS2Pygame_simpleguics2pygame__arguments -->
<g id="node7" class="node">
<title>SimpleGUICS2Pygame_simpleguics2pygame__arguments</title><style>.edge>path:hover{stroke-width:8}</style>
<ellipse fill="#f90606" stroke="#000000" cx="277.9063" cy="-640.2016" rx="86.9483" ry="28.9828"/>
<text text-anchor="middle" x="277.9063" y="-648.7016" font-family="Helvetica,sans-Serif" font-size="10.00" fill="#ffffff">SimpleGUICS2Pygame.</text>
<text text-anchor="middle" x="277.9063" y="-637.7016" font-family="Helvetica,sans-Serif" font-size="10.00" fill="#ffffff">simpleguics2pygame.</text>
<text text-anchor="middle" x="277.9063" y="-626.7016" font-family="Helvetica,sans-Serif" font-size="10.00" fill="#ffffff">_arguments</text>
</g>
<!-- SimpleGUICS2Pygame_simpleguics2pygame__arguments&#45;&gt;SimpleGUICS2Pygame_simpleguics2pygame -->
<g id="edge9" class="edge">
<title>SimpleGUICS2Pygame_simpleguics2pygame__arguments&#45;&gt;SimpleGUICS2Pygame_simpleguics2pygame</title><style>.edge>path:hover{stroke-width:8}</style>
<path fill="none" stroke="#000000" d="M233.0742,-615.0644C215.911,-604.1634 196.8786,-590.4085 181.9063,-575.2102 171.0948,-564.2355 172.0438,-558.6221 162.9063,-546.2189"/>
<path fill="none" stroke="#000000" d="M162.9063,-546.2189C123.6471,-492.9279 68.2359,-534.4666 28.9063,-481.2275 -3.9543,-436.7452 -5.5506,-411.3531 9.9063,-358.2534"/>
<path fill="none" stroke="#000000" d="M9.9063,-358.2534C35.4141,-266.7336 120.8131,-313.7722 201.9063,-264.2706"/>
<path fill="none" stroke="#000000" d="M201.9063,-264.2706C280.3085,-216.4117 538.4347,-192.9664 679.9771,-183.4576"/>
<polygon fill="#f90606" stroke="#000000" points="680.2155,-186.9496 689.9626,-182.7969 679.7533,-179.9648 680.2155,-186.9496"/>
</g>
<!-- SimpleGUICS2Pygame_simpleguics2pygame__fonts -->
<g id="node9" class="node">
<title>SimpleGUICS2Pygame_simpleguics2pygame__fonts</title><style>.edge>path:hover{stroke-width:8}</style>
<ellipse fill="#bf2121" stroke="#000000" cx="660.9063" cy="-452.2361" rx="86.9483" ry="28.9828"/>
<text text-anchor="middle" x="660.9063" y="-460.7361" font-family="Helvetica,sans-Serif" font-size="10.00" fill="#ffffff">SimpleGUICS2Pygame.</text>
<text text-anchor="middle" x="660.9063" y="-449.7361" font-family="Helvetica,sans-Serif" font-size="10.00" fill="#ffffff">simpleguics2pygame.</text>
<text text-anchor="middle" x="660.9063" y="-438.7361" font-family="Helvetica,sans-Serif" font-size="10.00" fill="#ffffff">_fonts</text>
</g>
<!-- SimpleGUICS2Pygame_simpleguics2pygame__arguments&#45;&gt;SimpleGUICS2Pygame_simpleguics2pygame__fonts -->
<g id="edge10" class="edge">
<title>SimpleGUICS2Pygame_simpleguics2pygame__arguments&#45;&gt;SimpleGUICS2Pygame_simpleguics2pygame__fonts</title><style>.edge>path:hover{stroke-width:8}</style>
<path fill="none" stroke="#000000" d="M326.8026,-616.2047C397.2942,-581.6094 527.26,-517.8259 602.6361,-480.8335"/>
<polygon fill="#f90606" stroke="#000000" points="604.5639,-483.7862 611.9991,-476.2384 601.4799,-477.5022 604.5639,-483.7862"/>
</g>
<!-- SimpleGUICS2Pygame_simpleguics2pygame__media -->
<g id="node11" class="node">
<title>SimpleGUICS2Pygame_simpleguics2pygame__media</title><style>.edge>path:hover{stroke-width:8}</style>
<ellipse fill="#b62020" stroke="#000000" cx="277.9063" cy="-546.2189" rx="86.9483" ry="28.9828"/>
<text text-anchor="middle" x="277.9063" y="-554.7189" font-family="Helvetica,sans-Serif" font-size="10.00" fill="#ffffff">SimpleGUICS2Pygame.</text>
<text text-anchor="middle" x="277.9063" y="-543.7189" font-family="Helvetica,sans-Serif" font-size="10.00" fill="#ffffff">simpleguics2pygame.</text>
<text text-anchor="middle" x="277.9063" y="-532.7189" font-family="Helvetica,sans-Serif" font-size="10.00" fill="#ffffff">_media</text>
</g>
<!-- SimpleGUICS2Pygame_simpleguics2pygame__arguments&#45;&gt;SimpleGUICS2Pygame_simpleguics2pygame__media -->
<g id="edge11" class="edge">
<title>SimpleGUICS2Pygame_simpleguics2pygame__arguments&#45;&gt;SimpleGUICS2Pygame_simpleguics2pygame__media</title><style>.edge>path:hover{stroke-width:8}</style>
<path fill="none" stroke="#000000" d="M277.9063,-610.9801C277.9063,-602.9353 277.9063,-594.0756 277.9063,-585.5604"/>
<polygon fill="#f90606" stroke="#000000" points="281.4064,-585.4223 277.9063,-575.4224 274.4064,-585.4224 281.4064,-585.4223"/>
</g>
<!-- SimpleGUICS2Pygame_simpleguics2pygame_frame -->
<g id="node15" class="node">
<title>SimpleGUICS2Pygame_simpleguics2pygame_frame</title><style>.edge>path:hover{stroke-width:8}</style>
<ellipse fill="#732626" stroke="#000000" cx="602.9063" cy="-264.2706" rx="86.9483" ry="28.9828"/>
<text text-anchor="middle" x="602.9063" y="-272.7706" font-family="Helvetica,sans-Serif" font-size="10.00" fill="#ffffff">SimpleGUICS2Pygame.</text>
<text text-anchor="middle" x="602.9063" y="-261.7706" font-family="Helvetica,sans-Serif" font-size="10.00" fill="#ffffff">simpleguics2pygame.</text>
<text text-anchor="middle" x="602.9063" y="-250.7706" font-family="Helvetica,sans-Serif" font-size="10.00" fill="#ffffff">frame</text>
</g>
<!-- SimpleGUICS2Pygame_simpleguics2pygame__arguments&#45;&gt;SimpleGUICS2Pygame_simpleguics2pygame_frame -->
<g id="edge12" class="edge">
<title>SimpleGUICS2Pygame_simpleguics2pygame__arguments&#45;&gt;SimpleGUICS2Pygame_simpleguics2pygame_frame</title><style>.edge>path:hover{stroke-width:8}</style>
<path fill="none" stroke="#000000" d="M239.9063,-452.2361C244.1061,-391.1717 253.4858,-366.7046 301.9063,-329.262 334.1341,-304.3408 434.6725,-286.0579 510.7628,-275.342"/>
<polygon fill="#f90606" stroke="#000000" points="511.43,-278.7831 520.8554,-273.9445 510.4698,-271.8492 511.43,-278.7831"/>
</g>
<!-- SimpleGUICS2Pygame_simpleguics2pygame_sound -->
<g id="node18" class="node">
<title>SimpleGUICS2Pygame_simpleguics2pygame_sound</title><style>.edge>path:hover{stroke-width:8}</style>
<ellipse fill="#a13535" stroke="#000000" cx="124.9063" cy="-452.2361" rx="86.9483" ry="28.9828"/>
<text text-anchor="middle" x="124.9063" y="-460.7361" font-family="Helvetica,sans-Serif" font-size="10.00" fill="#ffffff">SimpleGUICS2Pygame.</text>
<text text-anchor="middle" x="124.9063" y="-449.7361" font-family="Helvetica,sans-Serif" font-size="10.00" fill="#ffffff">simpleguics2pygame.</text>
<text text-anchor="middle" x="124.9063" y="-438.7361" font-family="Helvetica,sans-Serif" font-size="10.00" fill="#ffffff">sound</text>
</g>
<!-- SimpleGUICS2Pygame_simpleguics2pygame__arguments&#45;&gt;SimpleGUICS2Pygame_simpleguics2pygame_sound -->
<g id="edge13" class="edge">
<title>SimpleGUICS2Pygame_simpleguics2pygame__arguments&#45;&gt;SimpleGUICS2Pygame_simpleguics2pygame_sound</title><style>.edge>path:hover{stroke-width:8}</style>
<path fill="none" stroke="#000000" d="M162.9063,-546.2189C150.7517,-529.72 141.7925,-508.787 135.6365,-490.8667"/>
<polygon fill="#f90606" stroke="#000000" points="138.9335,-489.6879 132.5024,-481.2682 132.2792,-491.8607 138.9335,-489.6879"/>
</g>
<!-- SimpleGUICS2Pygame_simpleguics2pygame_timer -->
<g id="node19" class="node">
<title>SimpleGUICS2Pygame_simpleguics2pygame_timer</title><style>.edge>path:hover{stroke-width:8}</style>
<ellipse fill="#bc2f2f" stroke="#000000" cx="124.9063" cy="-358.2534" rx="86.9483" ry="28.9828"/>
<text text-anchor="middle" x="124.9063" y="-366.7534" font-family="Helvetica,sans-Serif" font-size="10.00" fill="#ffffff">SimpleGUICS2Pygame.</text>
<text text-anchor="middle" x="124.9063" y="-355.7534" font-family="Helvetica,sans-Serif" font-size="10.00" fill="#ffffff">simpleguics2pygame.</text>
<text text-anchor="middle" x="124.9063" y="-344.7534" font-family="Helvetica,sans-Serif" font-size="10.00" fill="#ffffff">timer</text>
</g>
<!-- SimpleGUICS2Pygame_simpleguics2pygame__arguments&#45;&gt;SimpleGUICS2Pygame_simpleguics2pygame_timer -->
<g id="edge14" class="edge">
<title>SimpleGUICS2Pygame_simpleguics2pygame__arguments&#45;&gt;SimpleGUICS2Pygame_simpleguics2pygame_timer</title><style>.edge>path:hover{stroke-width:8}</style>
<path fill="none" stroke="#000000" d="M162.9063,-546.2189C130.8782,-502.7435 236.2012,-506.1079 239.9063,-452.2361"/>
<path fill="none" stroke="#000000" d="M239.9063,-452.2361C241.9647,-422.3072 218.3983,-400.17 192.074,-384.9242"/>
<polygon fill="#f90606" stroke="#000000" points="193.5291,-381.7312 183.0739,-380.0167 190.178,-387.8769 193.5291,-381.7312"/>
</g>
<!-- SimpleGUICS2Pygame_simpleguics2pygame__colors -->
<g id="node8" class="node">
<title>SimpleGUICS2Pygame_simpleguics2pygame__colors</title><style>.edge>path:hover{stroke-width:8}</style>
<ellipse fill="#d92626" stroke="#000000" cx="890.9063" cy="-452.2361" rx="86.9483" ry="28.9828"/>
<text text-anchor="middle" x="890.9063" y="-460.7361" font-family="Helvetica,sans-Serif" font-size="10.00" fill="#ffffff">SimpleGUICS2Pygame.</text>
<text text-anchor="middle" x="890.9063" y="-449.7361" font-family="Helvetica,sans-Serif" font-size="10.00" fill="#ffffff">simpleguics2pygame.</text>
<text text-anchor="middle" x="890.9063" y="-438.7361" font-family="Helvetica,sans-Serif" font-size="10.00" fill="#ffffff">_colors</text>
</g>
<!-- SimpleGUICS2Pygame_simpleguics2pygame_canvas -->
<g id="node13" class="node">
<title>SimpleGUICS2Pygame_simpleguics2pygame_canvas</title><style>.edge>path:hover{stroke-width:8}</style>
<ellipse fill="#a32828" stroke="#000000" cx="660.9063" cy="-358.2534" rx="86.9483" ry="28.9828"/>
<text text-anchor="middle" x="660.9063" y="-366.7534" font-family="Helvetica,sans-Serif" font-size="10.00" fill="#ffffff">SimpleGUICS2Pygame.</text>
<text text-anchor="middle" x="660.9063" y="-355.7534" font-family="Helvetica,sans-Serif" font-size="10.00" fill="#ffffff">simpleguics2pygame.</text>
<text text-anchor="middle" x="660.9063" y="-344.7534" font-family="Helvetica,sans-Serif" font-size="10.00" fill="#ffffff">canvas</text>
</g>
<!-- SimpleGUICS2Pygame_simpleguics2pygame__colors&#45;&gt;SimpleGUICS2Pygame_simpleguics2pygame_canvas -->
<g id="edge15" class="edge">
<title>SimpleGUICS2Pygame_simpleguics2pygame__colors&#45;&gt;SimpleGUICS2Pygame_simpleguics2pygame_canvas</title><style>.edge>path:hover{stroke-width:8}</style>
<path fill="none" stroke="#000000" d="M835.8156,-429.7249C802.6525,-416.1738 760.2675,-398.8544 725.5274,-384.6589"/>
<polygon fill="#d92626" stroke="#000000" points="726.5266,-381.2863 715.9457,-380.7436 723.8787,-387.7662 726.5266,-381.2863"/>
</g>
<!-- SimpleGUICS2Pygame_simpleguics2pygame_control -->
<g id="node14" class="node">
<title>SimpleGUICS2Pygame_simpleguics2pygame_control</title><style>.edge>path:hover{stroke-width:8}</style>
<ellipse fill="#ac2b2b" stroke="#000000" cx="890.9063" cy="-358.2534" rx="86.9483" ry="28.9828"/>
<text text-anchor="middle" x="890.9063" y="-366.7534" font-family="Helvetica,sans-Serif" font-size="10.00" fill="#ffffff">SimpleGUICS2Pygame.</text>
<text text-anchor="middle" x="890.9063" y="-355.7534" font-family="Helvetica,sans-Serif" font-size="10.00" fill="#ffffff">simpleguics2pygame.</text>
<text text-anchor="middle" x="890.9063" y="-344.7534" font-family="Helvetica,sans-Serif" font-size="10.00" fill="#ffffff">control</text>
</g>
<!-- SimpleGUICS2Pygame_simpleguics2pygame__colors&#45;&gt;SimpleGUICS2Pygame_simpleguics2pygame_control -->
<g id="edge16" class="edge">
<title>SimpleGUICS2Pygame_simpleguics2pygame__colors&#45;&gt;SimpleGUICS2Pygame_simpleguics2pygame_control</title><style>.edge>path:hover{stroke-width:8}</style>
<path fill="none" stroke="#000000" d="M890.9063,-423.0146C890.9063,-414.9698 890.9063,-406.1101 890.9063,-397.5949"/>
<polygon fill="#d92626" stroke="#000000" points="894.4064,-397.4568 890.9063,-387.4568 887.4064,-397.4569 894.4064,-397.4568"/>
</g>
<!-- SimpleGUICS2Pygame_simpleguics2pygame__colors&#45;&gt;SimpleGUICS2Pygame_simpleguics2pygame_frame -->
<g id="edge17" class="edge">
<title>SimpleGUICS2Pygame_simpleguics2pygame__colors&#45;&gt;SimpleGUICS2Pygame_simpleguics2pygame_frame</title><style>.edge>path:hover{stroke-width:8}</style>
<path fill="none" stroke="#000000" d="M846.0742,-427.0989C828.911,-416.1978 809.8786,-402.443 794.9063,-387.2447 773.2833,-365.2953 780.571,-348.9931 756.9063,-329.262 734.5743,-310.642 706.1328,-296.6416 679.7852,-286.497"/>
<polygon fill="#d92626" stroke="#000000" points="680.781,-283.1333 670.188,-282.9326 678.3437,-289.6953 680.781,-283.1333"/>
</g>
<!-- SimpleGUICS2Pygame_simpleguics2pygame__fonts&#45;&gt;SimpleGUICS2Pygame_simpleguics2pygame_canvas -->
<g id="edge18" class="edge">
<title>SimpleGUICS2Pygame_simpleguics2pygame__fonts&#45;&gt;SimpleGUICS2Pygame_simpleguics2pygame_canvas</title><style>.edge>path:hover{stroke-width:8}</style>
<path fill="none" stroke="#000000" d="M660.9063,-423.0146C660.9063,-414.9698 660.9063,-406.1101 660.9063,-397.5949"/>
<polygon fill="#bf2121" stroke="#000000" points="664.4064,-397.4568 660.9063,-387.4568 657.4064,-397.4569 664.4064,-397.4568"/>
</g>
<!-- SimpleGUICS2Pygame_simpleguics2pygame__fonts&#45;&gt;SimpleGUICS2Pygame_simpleguics2pygame_control -->
<g id="edge19" class="edge">
<title>SimpleGUICS2Pygame_simpleguics2pygame__fonts&#45;&gt;SimpleGUICS2Pygame_simpleguics2pygame_control</title><style>.edge>path:hover{stroke-width:8}</style>
<path fill="none" stroke="#000000" d="M715.9971,-429.7249C749.1601,-416.1738 791.5451,-398.8544 826.2852,-384.6589"/>
<polygon fill="#bf2121" stroke="#000000" points="827.9339,-387.7662 835.867,-380.7436 825.2861,-381.2863 827.9339,-387.7662"/>
</g>
<!-- SimpleGUICS2Pygame_simpleguics2pygame__fonts&#45;&gt;SimpleGUICS2Pygame_simpleguics2pygame_frame -->
<g id="edge20" class="edge">
<title>SimpleGUICS2Pygame_simpleguics2pygame__fonts&#45;&gt;SimpleGUICS2Pygame_simpleguics2pygame_frame</title><style>.edge>path:hover{stroke-width:8}</style>
<path fill="none" stroke="#000000" d="M607.9169,-429.0539C591.0522,-418.8298 574.3401,-405.0237 564.9063,-387.2447 550.5408,-360.1714 562.4761,-326.8088 576.6537,-301.6674"/>
<polygon fill="#bf2121" stroke="#000000" points="579.8229,-303.1861 581.9339,-292.8036 573.8091,-299.6036 579.8229,-303.1861"/>
</g>
<!-- SimpleGUICS2Pygame_simpleguics2pygame__joypads -->
<g id="node10" class="node">
<title>SimpleGUICS2Pygame_simpleguics2pygame__joypads</title><style>.edge>path:hover{stroke-width:8}</style>
<ellipse fill="#b83d3d" stroke="#000000" cx="430.9063" cy="-358.2534" rx="86.9483" ry="28.9828"/>
<text text-anchor="middle" x="430.9063" y="-366.7534" font-family="Helvetica,sans-Serif" font-size="10.00" fill="#ffffff">SimpleGUICS2Pygame.</text>
<text text-anchor="middle" x="430.9063" y="-355.7534" font-family="Helvetica,sans-Serif" font-size="10.00" fill="#ffffff">simpleguics2pygame.</text>
<text text-anchor="middle" x="430.9063" y="-344.7534" font-family="Helvetica,sans-Serif" font-size="10.00" fill="#ffffff">_joypads</text>
</g>
<!-- SimpleGUICS2Pygame_simpleguics2pygame__joypads&#45;&gt;SimpleGUICS2Pygame_simpleguics2pygame_frame -->
<g id="edge21" class="edge">
<title>SimpleGUICS2Pygame_simpleguics2pygame__joypads&#45;&gt;SimpleGUICS2Pygame_simpleguics2pygame_frame</title><style>.edge>path:hover{stroke-width:8}</style>
<path fill="none" stroke="#000000" d="M476.5476,-333.3144C498.6005,-321.2645 525.2325,-306.7125 548.3494,-294.0811"/>
<polygon fill="#b83d3d" stroke="#000000" points="550.2533,-297.0293 557.3505,-289.1628 546.8968,-290.8865 550.2533,-297.0293"/>
</g>
<!-- SimpleGUICS2Pygame_simpleguics2pygame__media&#45;&gt;SimpleGUICS2Pygame_simpleguics2pygame_frame -->
<g id="edge22" class="edge">
<title>SimpleGUICS2Pygame_simpleguics2pygame__media&#45;&gt;SimpleGUICS2Pygame_simpleguics2pygame_frame</title><style>.edge>path:hover{stroke-width:8}</style>
<path fill="none" stroke="#000000" d="M281.299,-517.1965C284.4862,-492.1501 289.824,-455.0871 296.9063,-423.2447 303.4402,-393.8685 307.4749,-387.1422 315.9063,-358.2534"/>
<path fill="none" stroke="#000000" d="M315.9063,-358.2534C320.0076,-343.4037 322.3171,-338.1414 334.9063,-329.262 363.6538,-308.9859 447.7105,-290.5721 514.1031,-278.564"/>
<polygon fill="#b62020" stroke="#000000" points="514.9488,-281.9685 524.1783,-276.766 513.7189,-275.0774 514.9488,-281.9685"/>
</g>
<!-- SimpleGUICS2Pygame_simpleguics2pygame_image -->
<g id="node16" class="node">
<title>SimpleGUICS2Pygame_simpleguics2pygame_image</title><style>.edge>path:hover{stroke-width:8}</style>
<ellipse fill="#bf2121" stroke="#000000" cx="392.9063" cy="-452.2361" rx="86.9483" ry="28.9828"/>
<text text-anchor="middle" x="392.9063" y="-460.7361" font-family="Helvetica,sans-Serif" font-size="10.00" fill="#ffffff">SimpleGUICS2Pygame.</text>
<text text-anchor="middle" x="392.9063" y="-449.7361" font-family="Helvetica,sans-Serif" font-size="10.00" fill="#ffffff">simpleguics2pygame.</text>
<text text-anchor="middle" x="392.9063" y="-438.7361" font-family="Helvetica,sans-Serif" font-size="10.00" fill="#ffffff">image</text>
</g>
<!-- SimpleGUICS2Pygame_simpleguics2pygame__media&#45;&gt;SimpleGUICS2Pygame_simpleguics2pygame_image -->
<g id="edge23" class="edge">
<title>SimpleGUICS2Pygame_simpleguics2pygame__media&#45;&gt;SimpleGUICS2Pygame_simpleguics2pygame_image</title><style>.edge>path:hover{stroke-width:8}</style>
<path fill="none" stroke="#000000" d="M310.8607,-519.2872C323.7327,-508.7677 338.6249,-496.5971 352.1601,-485.5356"/>
<polygon fill="#b62020" stroke="#000000" points="354.4188,-488.2099 359.9471,-479.1717 349.9891,-482.7897 354.4188,-488.2099"/>
</g>
<!-- SimpleGUICS2Pygame_simpleguics2pygame__media&#45;&gt;SimpleGUICS2Pygame_simpleguics2pygame_sound -->
<g id="edge24" class="edge">
<title>SimpleGUICS2Pygame_simpleguics2pygame__media&#45;&gt;SimpleGUICS2Pygame_simpleguics2pygame_sound</title><style>.edge>path:hover{stroke-width:8}</style>
<path fill="none" stroke="#000000" d="M236.0984,-520.5377C217.2157,-508.9387 194.7553,-495.142 174.9807,-482.9951"/>
<polygon fill="#b62020" stroke="#000000" points="176.7514,-479.9752 166.3986,-477.7234 173.0875,-485.9398 176.7514,-479.9752"/>
</g>
<!-- SimpleGUICS2Pygame_simpleguics2pygame__pygame_init -->
<g id="node12" class="node">
<title>SimpleGUICS2Pygame_simpleguics2pygame__pygame_init</title><style>.edge>path:hover{stroke-width:8}</style>
<ellipse fill="#a13535" stroke="#000000" cx="1005.9063" cy="-264.2706" rx="86.9483" ry="28.9828"/>
<text text-anchor="middle" x="1005.9063" y="-272.7706" font-family="Helvetica,sans-Serif" font-size="10.00" fill="#ffffff">SimpleGUICS2Pygame.</text>
<text text-anchor="middle" x="1005.9063" y="-261.7706" font-family="Helvetica,sans-Serif" font-size="10.00" fill="#ffffff">simpleguics2pygame.</text>
<text text-anchor="middle" x="1005.9063" y="-250.7706" font-family="Helvetica,sans-Serif" font-size="10.00" fill="#ffffff">_pygame_init</text>
</g>
<!-- SimpleGUICS2Pygame_simpleguics2pygame__pygame_init&#45;&gt;SimpleGUICS2Pygame_simpleguics2pygame -->
<g id="edge25" class="edge">
<title>SimpleGUICS2Pygame_simpleguics2pygame__pygame_init&#45;&gt;SimpleGUICS2Pygame_simpleguics2pygame</title><style>.edge>path:hover{stroke-width:8}</style>
<path fill="none" stroke="#000000" d="M947.9134,-242.6288C912.609,-229.4539 867.6805,-212.6875 832.4569,-199.5427"/>
<polygon fill="#a13535" stroke="#000000" points="833.388,-196.1545 822.7954,-195.9373 830.9406,-202.7127 833.388,-196.1545"/>
</g>
<!-- SimpleGUICS2Pygame_simpleguics2pygame_canvas&#45;&gt;SimpleGUICS2Pygame_simpleguics2pygame -->
<g id="edge26" class="edge">
<title>SimpleGUICS2Pygame_simpleguics2pygame_canvas&#45;&gt;SimpleGUICS2Pygame_simpleguics2pygame</title><style>.edge>path:hover{stroke-width:8}</style>
<path fill="none" stroke="#000000" d="M734.9872,-342.9596C807.2842,-325.9995 904.5807,-296.7161 890.9063,-264.2706"/>
<path fill="none" stroke="#000000" d="M890.9063,-264.2706C879.1031,-236.2648 852.5007,-215.4623 827.7458,-201.3163"/>
<polygon fill="#a32828" stroke="#000000" points="829.1951,-198.12 818.74,-196.4047 825.8434,-204.2655 829.1951,-198.12"/>
</g>
<!-- SimpleGUICS2Pygame_simpleguics2pygame_canvas&#45;&gt;SimpleGUICS2Pygame_simpleguics2pygame_frame -->
<g id="edge27" class="edge">
<title>SimpleGUICS2Pygame_simpleguics2pygame_canvas&#45;&gt;SimpleGUICS2Pygame_simpleguics2pygame_frame</title><style>.edge>path:hover{stroke-width:8}</style>
<path fill="none" stroke="#000000" d="M643.347,-329.8004C637.8894,-320.9569 631.788,-311.0702 626.0123,-301.7113"/>
<polygon fill="#a32828" stroke="#000000" points="628.8364,-299.623 620.6061,-292.9512 622.8795,-303.2993 628.8364,-299.623"/>
</g>
<!-- SimpleGUICS2Pygame_simpleguics2pygame_control&#45;&gt;SimpleGUICS2Pygame_simpleguics2pygame -->
<g id="edge28" class="edge">
<title>SimpleGUICS2Pygame_simpleguics2pygame_control&#45;&gt;SimpleGUICS2Pygame_simpleguics2pygame</title><style>.edge>path:hover{stroke-width:8}</style>
<path fill="none" stroke="#000000" d="M896.5872,-329.1409C898.9858,-309.9655 899.5245,-284.7191 890.9063,-264.2706"/>
</g>
<!-- SimpleGUICS2Pygame_simpleguics2pygame_control&#45;&gt;SimpleGUICS2Pygame_simpleguics2pygame_frame -->
<g id="edge29" class="edge">
<title>SimpleGUICS2Pygame_simpleguics2pygame_control&#45;&gt;SimpleGUICS2Pygame_simpleguics2pygame_frame</title><style>.edge>path:hover{stroke-width:8}</style>
<path fill="none" stroke="#000000" d="M828.4146,-337.8605C783.2209,-323.1125 722.0561,-303.1526 674.8288,-287.741"/>
<polygon fill="#ac2b2b" stroke="#000000" points="675.8685,-284.3987 665.2761,-284.6237 673.6969,-291.0533 675.8685,-284.3987"/>
</g>
<!-- SimpleGUICS2Pygame_simpleguics2pygame_frame&#45;&gt;SimpleGUICS2Pygame_simpleguics2pygame -->
<g id="edge30" class="edge">
<title>SimpleGUICS2Pygame_simpleguics2pygame_frame&#45;&gt;SimpleGUICS2Pygame_simpleguics2pygame</title><style>.edge>path:hover{stroke-width:8}</style>
<path fill="none" stroke="#000000" d="M651.2756,-240.0284C675.1349,-228.0704 703.8077,-213.6999 727.5311,-201.81"/>
<polygon fill="#732626" stroke="#000000" points="729.3221,-204.8274 736.6939,-197.2177 726.1856,-198.5694 729.3221,-204.8274"/>
</g>
<!-- SimpleGUICS2Pygame_simpleguics2pygame_image&#45;&gt;SimpleGUICS2Pygame_simpleguics2pygame -->
<g id="edge31" class="edge">
<title>SimpleGUICS2Pygame_simpleguics2pygame_image&#45;&gt;SimpleGUICS2Pygame_simpleguics2pygame</title><style>.edge>path:hover{stroke-width:8}</style>
<path fill="none" stroke="#000000" d="M354.1599,-426.0595C288.1328,-380.1567 164.4087,-287.776 201.9063,-264.2706"/>
</g>
<!-- SimpleGUICS2Pygame_simpleguics2pygame_image&#45;&gt;SimpleGUICS2Pygame_simpleguics2pygame_canvas -->
<g id="edge32" class="edge">
<title>SimpleGUICS2Pygame_simpleguics2pygame_image&#45;&gt;SimpleGUICS2Pygame_simpleguics2pygame_canvas</title><style>.edge>path:hover{stroke-width:8}</style>
<path fill="none" stroke="#000000" d="M453.0508,-431.1445C494.0848,-416.7546 548.5562,-397.6525 591.4419,-382.6133"/>
<polygon fill="#bf2121" stroke="#000000" points="592.6843,-385.8866 600.9626,-379.2745 590.3678,-379.281 592.6843,-385.8866"/>
</g>
<!-- SimpleGUICS2Pygame_simpleguics2pygame_image&#45;&gt;SimpleGUICS2Pygame_simpleguics2pygame_frame -->
<g id="edge33" class="edge">
<title>SimpleGUICS2Pygame_simpleguics2pygame_image&#45;&gt;SimpleGUICS2Pygame_simpleguics2pygame_frame</title><style>.edge>path:hover{stroke-width:8}</style>
<path fill="none" stroke="#000000" d="M351.2177,-426.6476C329.1368,-409.4992 308.0464,-385.184 315.9063,-358.2534"/>
</g>
<!-- SimpleGUICS2Pygame_simpleguics2pygame_keys -->
<g id="node17" class="node">
<title>SimpleGUICS2Pygame_simpleguics2pygame_keys</title><style>.edge>path:hover{stroke-width:8}</style>
<ellipse fill="#c43131" stroke="#000000" cx="1082.9063" cy="-358.2534" rx="86.9483" ry="28.9828"/>
<text text-anchor="middle" x="1082.9063" y="-366.7534" font-family="Helvetica,sans-Serif" font-size="10.00" fill="#ffffff">SimpleGUICS2Pygame.</text>
<text text-anchor="middle" x="1082.9063" y="-355.7534" font-family="Helvetica,sans-Serif" font-size="10.00" fill="#ffffff">simpleguics2pygame.</text>
<text text-anchor="middle" x="1082.9063" y="-344.7534" font-family="Helvetica,sans-Serif" font-size="10.00" fill="#ffffff">keys</text>
</g>
<!-- SimpleGUICS2Pygame_simpleguics2pygame_keys&#45;&gt;SimpleGUICS2Pygame_simpleguics2pygame -->
<g id="edge34" class="edge">
<title>SimpleGUICS2Pygame_simpleguics2pygame_keys&#45;&gt;SimpleGUICS2Pygame_simpleguics2pygame</title><style>.edge>path:hover{stroke-width:8}</style>
<path fill="none" stroke="#000000" d="M1018.438,-338.668C976.8218,-325.1594 927.3148,-307.1964 909.9063,-293.262 897.8791,-283.6349 896.8894,-278.4669 890.9063,-264.2706"/>
</g>
<!-- SimpleGUICS2Pygame_simpleguics2pygame_keys&#45;&gt;SimpleGUICS2Pygame_simpleguics2pygame_frame -->
<g id="edge35" class="edge">
<title>SimpleGUICS2Pygame_simpleguics2pygame_keys&#45;&gt;SimpleGUICS2Pygame_simpleguics2pygame_frame</title><style>.edge>path:hover{stroke-width:8}</style>
<path fill="none" stroke="#000000" d="M1020.212,-338.0872C1009.1781,-334.892 997.7542,-331.8073 986.9063,-329.262 887.8413,-306.0172 772.5455,-287.642 694.3372,-276.4441"/>
<polygon fill="#c43131" stroke="#000000" points="694.4252,-272.9215 684.0322,-274.9794 693.4401,-279.8518 694.4252,-272.9215"/>
</g>
<!-- SimpleGUICS2Pygame_simpleguics2pygame_sound&#45;&gt;SimpleGUICS2Pygame_simpleguics2pygame -->
<g id="edge36" class="edge">
<title>SimpleGUICS2Pygame_simpleguics2pygame_sound&#45;&gt;SimpleGUICS2Pygame_simpleguics2pygame</title><style>.edge>path:hover{stroke-width:8}</style>
<path fill="none" stroke="#000000" d="M64.8669,-431.1492C32.2107,-415.6226 .2496,-391.4276 9.9063,-358.2534"/>
</g>
<!-- SimpleGUICS2Pygame_simpleguics2pygame_timer&#45;&gt;SimpleGUICS2Pygame_simpleguics2pygame -->
<g id="edge37" class="edge">
<title>SimpleGUICS2Pygame_simpleguics2pygame_timer&#45;&gt;SimpleGUICS2Pygame_simpleguics2pygame</title><style>.edge>path:hover{stroke-width:8}</style>
<path fill="none" stroke="#000000" d="M141.1653,-329.7307C154.7305,-308.509 175.9915,-280.5153 201.9063,-264.2706"/>
</g>
<!-- SimpleGUICS2Pygame_simpleguics2pygame_timer&#45;&gt;SimpleGUICS2Pygame_simpleguics2pygame_frame -->
<g id="edge38" class="edge">
<title>SimpleGUICS2Pygame_simpleguics2pygame_timer&#45;&gt;SimpleGUICS2Pygame_simpleguics2pygame_frame</title><style>.edge>path:hover{stroke-width:8}</style>
<path fill="none" stroke="#000000" d="M189.2911,-338.6414C201.396,-335.2764 213.9921,-331.9904 225.9063,-329.262 323.0272,-307.0211 435.7814,-288.5289 512.4965,-277.0293"/>
<polygon fill="#bc2f2f" stroke="#000000" points="513.2319,-280.4584 522.607,-275.5229 512.2003,-273.5349 513.2319,-280.4584"/>
</g>
<!-- SimpleGUICS2Pygame_simpleplot -->
<g id="node20" class="node">
<title>SimpleGUICS2Pygame_simpleplot</title><style>.edge>path:hover{stroke-width:8}</style>
<ellipse fill="#ac4949" stroke="#000000" cx="814.9063" cy="-640.2016" rx="86.9483" ry="21.4286"/>
<text text-anchor="middle" x="814.9063" y="-643.2016" font-family="Helvetica,sans-Serif" font-size="10.00" fill="#ffffff">SimpleGUICS2Pygame.</text>
<text text-anchor="middle" x="814.9063" y="-632.2016" font-family="Helvetica,sans-Serif" font-size="10.00" fill="#ffffff">simpleplot</text>
</g>
<!-- audioread -->
<g id="node21" class="node">
<title>audioread</title><style>.edge>path:hover{stroke-width:8}</style>
<polygon fill="#80c040" stroke="#000000" points="422.4063,-778.193 419.4063,-782.193 398.4063,-782.193 395.4063,-778.193 363.4063,-778.193 363.4063,-742.193 422.4063,-742.193 422.4063,-778.193"/>
<text text-anchor="middle" x="392.9063" y="-757.693" font-family="Helvetica,sans-Serif" font-size="10.00" fill="#000000">audioread</text>
</g>
<!-- audioread&#45;&gt;SimpleGUICS2Pygame_simpleguics2pygame__media -->
<g id="edge39" class="edge">
<title>audioread&#45;&gt;SimpleGUICS2Pygame_simpleguics2pygame__media</title><style>.edge>path:hover{stroke-width:8}</style>
<path fill="none" stroke="#000000" d="M395.1192,-742.1342C397.8279,-712.4509 399.3081,-652.5245 373.9063,-611.2102 365.0892,-596.8698 351.7859,-584.9624 337.869,-575.429"/>
<polygon fill="#80c040" stroke="#000000" points="339.4575,-572.2882 329.1591,-569.7993 335.6576,-578.1671 339.4575,-572.2882"/>
</g>
<!-- matplotlib -->
<g id="node22" class="node">
<title>matplotlib</title><style>.edge>path:hover{stroke-width:8}</style>
<polygon fill="#31c4c4" stroke="#000000" points="844.4063,-778.193 841.4063,-782.193 820.4063,-782.193 817.4063,-778.193 785.4063,-778.193 785.4063,-742.193 844.4063,-742.193 844.4063,-778.193"/>
<text text-anchor="middle" x="814.9063" y="-757.693" font-family="Helvetica,sans-Serif" font-size="10.00" fill="#000000">matplotlib</text>
</g>
<!-- matplotlib&#45;&gt;SimpleGUICS2Pygame_simpleplot -->
<g id="edge40" class="edge">
<title>matplotlib&#45;&gt;SimpleGUICS2Pygame_simpleplot</title><style>.edge>path:hover{stroke-width:8}</style>
<path fill="none" stroke="#000000" d="M814.9063,-741.9689C814.9063,-723.2917 814.9063,-693.8924 814.9063,-671.4851"/>
<polygon fill="#31c4c4" stroke="#000000" points="818.4064,-671.4356 814.9063,-661.4356 811.4064,-671.4357 818.4064,-671.4356"/>
</g>
<!-- pygame -->
<g id="node23" class="node">
<title>pygame</title><style>.edge>path:hover{stroke-width:8}</style>
<polygon fill="#6605c7" stroke="#000000" points="610.9063,-778.193 607.9063,-782.193 586.9063,-782.193 583.9063,-778.193 556.9063,-778.193 556.9063,-742.193 610.9063,-742.193 610.9063,-778.193"/>
<text text-anchor="middle" x="583.9063" y="-757.693" font-family="Helvetica,sans-Serif" font-size="10.00" fill="#ffffff">pygame</text>
</g>
<!-- pygame&#45;&gt;SimpleGUICS2Pygame_simpleguics2pygame__colors -->
<g id="edge41" class="edge">
<title>pygame&#45;&gt;SimpleGUICS2Pygame_simpleguics2pygame__colors</title><style>.edge>path:hover{stroke-width:8}</style>
<path fill="none" stroke="#000000" d="M775.9063,-546.2189C786.8048,-519.0433 810.6618,-497.4847 833.8368,-481.9069"/>
<polygon fill="#6605c7" stroke="#000000" points="835.8103,-484.799 842.3189,-476.439 832.0175,-478.9155 835.8103,-484.799"/>
</g>
<!-- pygame&#45;&gt;SimpleGUICS2Pygame_simpleguics2pygame__fonts -->
<g id="edge42" class="edge">
<title>pygame&#45;&gt;SimpleGUICS2Pygame_simpleguics2pygame__fonts</title><style>.edge>path:hover{stroke-width:8}</style>
<path fill="none" stroke="#000000" d="M775.9063,-546.2189C787.83,-516.487 761.0964,-493.4785 730.418,-477.67"/>
<polygon fill="#6605c7" stroke="#000000" points="731.7734,-474.437 721.2511,-473.1994 728.705,-480.7286 731.7734,-474.437"/>
</g>
<!-- pygame&#45;&gt;SimpleGUICS2Pygame_simpleguics2pygame__joypads -->
<g id="edge43" class="edge">
<title>pygame&#45;&gt;SimpleGUICS2Pygame_simpleguics2pygame__joypads</title><style>.edge>path:hover{stroke-width:8}</style>
<path fill="none" stroke="#000000" d="M507.9063,-452.2361C494.1963,-445.2099 498.2832,-435.468 488.9063,-423.2447 481.2836,-413.3081 472.5232,-402.9992 464.1589,-393.5988"/>
<polygon fill="#6605c7" stroke="#000000" points="466.5547,-391.0291 457.2597,-385.9442 461.355,-395.7156 466.5547,-391.0291"/>
</g>
<!-- pygame&#45;&gt;SimpleGUICS2Pygame_simpleguics2pygame__media -->
<g id="edge44" class="edge">
<title>pygame&#45;&gt;SimpleGUICS2Pygame_simpleguics2pygame__media</title><style>.edge>path:hover{stroke-width:8}</style>
<path fill="none" stroke="#000000" d="M611.0331,-748.7962C652.0867,-729.7213 722.9089,-688.6186 699.9063,-640.2016"/>
<path fill="none" stroke="#000000" d="M699.9063,-640.2016C680.9342,-577.8397 493.4516,-556.8369 374.8496,-549.7779"/>
<polygon fill="#6605c7" stroke="#000000" points="374.8443,-546.272 364.6608,-549.1955 374.4448,-553.2606 374.8443,-546.272"/>
</g>
<!-- pygame&#45;&gt;SimpleGUICS2Pygame_simpleguics2pygame__pygame_init -->
<g id="edge45" class="edge">
<title>pygame&#45;&gt;SimpleGUICS2Pygame_simpleguics2pygame__pygame_init</title><style>.edge>path:hover{stroke-width:8}</style>
<path fill="none" stroke="#000000" d="M1082.9063,-452.2361C1107.7695,-407.1072 1154.7558,-432.7589 1178.9063,-387.2447 1190.9853,-364.4808 1193.5786,-350.4474 1178.9063,-329.262 1167.3886,-312.6314 1125.2406,-296.6152 1085.4333,-284.6434"/>
<polygon fill="#6605c7" stroke="#000000" points="1086.2342,-281.2307 1075.6529,-281.7665 1084.2587,-287.9462 1086.2342,-281.2307"/>
</g>
<!-- pygame&#45;&gt;SimpleGUICS2Pygame_simpleguics2pygame_canvas -->
<g id="edge46" class="edge">
<title>pygame&#45;&gt;SimpleGUICS2Pygame_simpleguics2pygame_canvas</title><style>.edge>path:hover{stroke-width:8}</style>
<path fill="none" stroke="#000000" d="M775.9063,-546.2189C796.4915,-494.8891 786.4927,-469.9688 756.9063,-423.2447 747.8558,-408.9517 734.3991,-397.0381 720.4054,-387.4823"/>
<polygon fill="#6605c7" stroke="#000000" points="721.9577,-384.3185 711.6576,-381.837 718.162,-390.2001 721.9577,-384.3185"/>
</g>
<!-- pygame&#45;&gt;SimpleGUICS2Pygame_simpleguics2pygame_control -->
<g id="edge47" class="edge">
<title>pygame&#45;&gt;SimpleGUICS2Pygame_simpleguics2pygame_control</title><style>.edge>path:hover{stroke-width:8}</style>
<path fill="none" stroke="#000000" d="M775.9063,-546.2189C828.3193,-413.4985 1014.0491,-577.2182 1082.9063,-452.2361"/>
<path fill="none" stroke="#000000" d="M1082.9063,-452.2361C1089.9359,-439.4769 1016.1203,-407.0162 957.9829,-383.82"/>
<polygon fill="#6605c7" stroke="#000000" points="959.0219,-380.467 948.4358,-380.0371 956.4433,-386.9747 959.0219,-380.467"/>
</g>
<!-- pygame&#45;&gt;SimpleGUICS2Pygame_simpleguics2pygame_frame -->
<g id="edge48" class="edge">
<title>pygame&#45;&gt;SimpleGUICS2Pygame_simpleguics2pygame_frame</title><style>.edge>path:hover{stroke-width:8}</style>
<path fill="none" stroke="#000000" d="M699.9063,-640.2016C694.4397,-625.7985 709.5823,-623.4738 718.9063,-611.2102 742.1597,-580.6258 761.7942,-581.9536 775.9063,-546.2189"/>
<path fill="none" stroke="#000000" d="M775.9063,-546.2189C811.9486,-454.9524 655.8615,-518.0483 564.9063,-481.2275 538.5613,-470.5624 533.2,-465.1988 507.9063,-452.2361"/>
<path fill="none" stroke="#000000" d="M507.9063,-452.2361C494.1963,-445.2099 501.5322,-432.072 488.9063,-423.2447 421.5911,-376.1819 294.0401,-437.4248 315.9063,-358.2534"/>
</g>
<!-- pygame&#45;&gt;SimpleGUICS2Pygame_simpleguics2pygame_image -->
<g id="edge49" class="edge">
<title>pygame&#45;&gt;SimpleGUICS2Pygame_simpleguics2pygame_image</title><style>.edge>path:hover{stroke-width:8}</style>
<path fill="none" stroke="#000000" d="M699.9063,-640.2016C683.7108,-586.9667 541.5004,-516.8428 456.4242,-479.0845"/>
<polygon fill="#6605c7" stroke="#000000" points="457.6691,-475.8083 447.1069,-474.9771 454.8454,-482.2135 457.6691,-475.8083"/>
</g>
<!-- pygame&#45;&gt;SimpleGUICS2Pygame_simpleguics2pygame_keys -->
<g id="edge50" class="edge">
<title>pygame&#45;&gt;SimpleGUICS2Pygame_simpleguics2pygame_keys</title><style>.edge>path:hover{stroke-width:8}</style>
<path fill="none" stroke="#000000" d="M1082.9063,-452.2361C1091.9891,-435.75 1092.8861,-415.0377 1091.1303,-397.2558"/>
<polygon fill="#6605c7" stroke="#000000" points="1094.5812,-396.6494 1089.8318,-387.1787 1087.6386,-397.5441 1094.5812,-396.6494"/>
</g>
<!-- pygame&#45;&gt;SimpleGUICS2Pygame_simpleguics2pygame_sound -->
<g id="edge51" class="edge">
<title>pygame&#45;&gt;SimpleGUICS2Pygame_simpleguics2pygame_sound</title><style>.edge>path:hover{stroke-width:8}</style>
<path fill="none" stroke="#000000" d="M556.8098,-757.4634C475.9368,-748.808 238.4027,-719.536 181.9063,-669.193 131.6579,-624.4175 123.276,-541.2226 123.1341,-491.8857"/>
<polygon fill="#6605c7" stroke="#000000" points="126.6363,-491.6306 123.2226,-481.6008 119.6366,-491.5702 126.6363,-491.6306"/>
</g>
</g>
</svg>
