<?xml version="1.0" encoding="UTF-8" standalone="no"?>
<!DOCTYPE svg PUBLIC "-//W3C//DTD SVG 1.1//EN"
 "http://www.w3.org/Graphics/SVG/1.1/DTD/svg11.dtd">
<!-- Generated by graphviz version 2.40.1 (20161225.0304)
 -->
<!-- Title: classes_SimpleGUICS2Pygame Pages: 1 -->
<svg width="3070pt" height="531pt"
 viewBox="0.00 0.00 3069.50 531.00" xmlns="http://www.w3.org/2000/svg" xmlns:xlink="http://www.w3.org/1999/xlink">
<g id="graph0" class="graph" transform="scale(1 1) rotate(0) translate(4 527)">
<title>classes_SimpleGUICS2Pygame</title>
<polygon fill="#ffffff" stroke="transparent" points="-4,4 -4,-527 3065.5,-527 3065.5,4 -4,4"/>
<!-- 0 -->
<g id="node1" class="node">
<title>0</title>
<polygon fill="none" stroke="#000000" points="0,-8 0,-198 237,-198 237,-8 0,-8"/>
<text text-anchor="middle" x="118.5" y="-182.8" font-family="Times,serif" font-size="14.00" fill="#000000">SimpleGUICS2Pygame.numeric.Matrix</text>
<polyline fill="none" stroke="#000000" points="0,-175 237,-175 "/>
<polyline fill="none" stroke="#000000" points="0,-151 237,-151 "/>
<text text-anchor="start" x="8" y="-135.8" font-family="Times,serif" font-size="14.00" fill="#000000">abs()</text>
<text text-anchor="start" x="8" y="-120.8" font-family="Times,serif" font-size="14.00" fill="#000000">copy()</text>
<text text-anchor="start" x="8" y="-105.8" font-family="Times,serif" font-size="14.00" fill="#000000">getcol(j)</text>
<text text-anchor="start" x="8" y="-90.8" font-family="Times,serif" font-size="14.00" fill="#000000">getrow(i)</text>
<text text-anchor="start" x="8" y="-75.8" font-family="Times,serif" font-size="14.00" fill="#000000">inverse(_epsilon)</text>
<text text-anchor="start" x="8" y="-60.8" font-family="Times,serif" font-size="14.00" fill="#000000">scale(factor)</text>
<text text-anchor="start" x="8" y="-45.8" font-family="Times,serif" font-size="14.00" fill="#000000">shape()</text>
<text text-anchor="start" x="8" y="-30.8" font-family="Times,serif" font-size="14.00" fill="#000000">summation()</text>
<text text-anchor="start" x="8" y="-15.8" font-family="Times,serif" font-size="14.00" fill="#000000">transpose()</text>
</g>
<!-- 1 -->
<g id="node2" class="node">
<title>1</title>
<polygon fill="none" stroke="#000000" points="131,-332.5 131,-447.5 406,-447.5 406,-332.5 131,-332.5"/>
<text text-anchor="middle" x="268.5" y="-432.3" font-family="Times,serif" font-size="14.00" fill="#000000">SimpleGUICS2Pygame.simplegui_lib_fps.FPS</text>
<polyline fill="none" stroke="#000000" points="131,-424.5 406,-424.5 "/>
<polyline fill="none" stroke="#000000" points="131,-400.5 406,-400.5 "/>
<text text-anchor="start" x="139" y="-385.3" font-family="Times,serif" font-size="14.00" fill="#000000">draw_fct(canvas)</text>
<text text-anchor="start" x="139" y="-370.3" font-family="Times,serif" font-size="14.00" fill="#000000">is_started()</text>
<text text-anchor="start" x="139" y="-355.3" font-family="Times,serif" font-size="14.00" fill="#000000">start()</text>
<text text-anchor="start" x="139" y="-340.3" font-family="Times,serif" font-size="14.00" fill="#000000">stop()</text>
</g>
<!-- 2 -->
<g id="node3" class="node">
<title>2</title>
<polygon fill="none" stroke="#000000" points="610,-.5 610,-205.5 899,-205.5 899,-.5 610,-.5"/>
<text text-anchor="middle" x="754.5" y="-190.3" font-family="Times,serif" font-size="14.00" fill="#000000">SimpleGUICS2Pygame.simplegui_lib_keys.Keys</text>
<polyline fill="none" stroke="#000000" points="610,-182.5 899,-182.5 "/>
<polyline fill="none" stroke="#000000" points="610,-158.5 899,-158.5 "/>
<text text-anchor="start" x="618" y="-143.3" font-family="Times,serif" font-size="14.00" fill="#000000">active_handlers()</text>
<text text-anchor="start" x="618" y="-128.3" font-family="Times,serif" font-size="14.00" fill="#000000">active_keydown_handler()</text>
<text text-anchor="start" x="618" y="-113.3" font-family="Times,serif" font-size="14.00" fill="#000000">active_keyup_handler()</text>
<text text-anchor="start" x="618" y="-98.3" font-family="Times,serif" font-size="14.00" fill="#000000">is_pressed(key_code)</text>
<text text-anchor="start" x="618" y="-83.3" font-family="Times,serif" font-size="14.00" fill="#000000">is_pressed_key_map(key_str)</text>
<text text-anchor="start" x="618" y="-68.3" font-family="Times,serif" font-size="14.00" fill="#000000">pressed_keys()</text>
<text text-anchor="start" x="618" y="-53.3" font-family="Times,serif" font-size="14.00" fill="#000000">set_keydown_fct(key_code, fct)</text>
<text text-anchor="start" x="618" y="-38.3" font-family="Times,serif" font-size="14.00" fill="#000000">set_keydown_fct_key_map(key_str, fct)</text>
<text text-anchor="start" x="618" y="-23.3" font-family="Times,serif" font-size="14.00" fill="#000000">set_keyup_fct(key_code, fct)</text>
<text text-anchor="start" x="618" y="-8.3" font-family="Times,serif" font-size="14.00" fill="#000000">set_keyup_fct_key_map(key_str, fct)</text>
</g>
<!-- 3 -->
<g id="node4" class="node">
<title>3</title>
<polygon fill="none" stroke="#000000" points="424.5,-265 424.5,-515 732.5,-515 732.5,-265 424.5,-265"/>
<text text-anchor="middle" x="578.5" y="-499.8" font-family="Times,serif" font-size="14.00" fill="#000000">SimpleGUICS2Pygame.simplegui_lib_loader.Loader</text>
<polyline fill="none" stroke="#000000" points="424.5,-492 732.5,-492 "/>
<polyline fill="none" stroke="#000000" points="424.5,-468 732.5,-468 "/>
<text text-anchor="start" x="432.5" y="-452.8" font-family="Times,serif" font-size="14.00" fill="#000000">add_image(url, name)</text>
<text text-anchor="start" x="432.5" y="-437.8" font-family="Times,serif" font-size="14.00" fill="#000000">add_sound(url, name)</text>
<text text-anchor="start" x="432.5" y="-422.8" font-family="Times,serif" font-size="14.00" fill="#000000">cache_clear()</text>
<text text-anchor="start" x="432.5" y="-407.8" font-family="Times,serif" font-size="14.00" fill="#000000">get_image(name)</text>
<text text-anchor="start" x="432.5" y="-392.8" font-family="Times,serif" font-size="14.00" fill="#000000">get_nb_images()</text>
<text text-anchor="start" x="432.5" y="-377.8" font-family="Times,serif" font-size="14.00" fill="#000000">get_nb_images_loaded()</text>
<text text-anchor="start" x="432.5" y="-362.8" font-family="Times,serif" font-size="14.00" fill="#000000">get_nb_sounds()</text>
<text text-anchor="start" x="432.5" y="-347.8" font-family="Times,serif" font-size="14.00" fill="#000000">get_nb_sounds_loaded()</text>
<text text-anchor="start" x="432.5" y="-332.8" font-family="Times,serif" font-size="14.00" fill="#000000">get_sound(name)</text>
<text text-anchor="start" x="432.5" y="-317.8" font-family="Times,serif" font-size="14.00" fill="#000000">load()</text>
<text text-anchor="start" x="432.5" y="-302.8" font-family="Times,serif" font-size="14.00" fill="#000000">pause_sounds()</text>
<text text-anchor="start" x="432.5" y="-287.8" font-family="Times,serif" font-size="14.00" fill="#000000">print_stats_cache()</text>
<text text-anchor="start" x="432.5" y="-272.8" font-family="Times,serif" font-size="14.00" fill="#000000">wait_loaded()</text>
</g>
<!-- 4 -->
<g id="node5" class="node">
<title>4</title>
<polygon fill="none" stroke="#000000" points="917.5,-15.5 917.5,-190.5 1473.5,-190.5 1473.5,-15.5 917.5,-15.5"/>
<text text-anchor="middle" x="1195.5" y="-175.3" font-family="Times,serif" font-size="14.00" fill="#000000">SimpleGUICS2Pygame.simpleguics2pygame.canvas.Canvas</text>
<polyline fill="none" stroke="#000000" points="917.5,-167.5 1473.5,-167.5 "/>
<polyline fill="none" stroke="#000000" points="917.5,-143.5 1473.5,-143.5 "/>
<text text-anchor="start" x="925.5" y="-128.3" font-family="Times,serif" font-size="14.00" fill="#000000">draw_arc(center_point, radius, start_angle, end_angle, line_width, line_color)</text>
<text text-anchor="start" x="925.5" y="-113.3" font-family="Times,serif" font-size="14.00" fill="#000000">draw_circle(center_point, radius, line_width, line_color, fill_color)</text>
<text text-anchor="start" x="925.5" y="-98.3" font-family="Times,serif" font-size="14.00" fill="#000000">draw_image(image, center_source, width_height_source, center_dest, width_height_dest, rotation)</text>
<text text-anchor="start" x="925.5" y="-83.3" font-family="Times,serif" font-size="14.00" fill="#000000">draw_line(point1, point2, line_width, line_color)</text>
<text text-anchor="start" x="925.5" y="-68.3" font-family="Times,serif" font-size="14.00" fill="#000000">draw_point(position, color)</text>
<text text-anchor="start" x="925.5" y="-53.3" font-family="Times,serif" font-size="14.00" fill="#000000">draw_polygon(point_list, line_width, line_color, fill_color)</text>
<text text-anchor="start" x="925.5" y="-38.3" font-family="Times,serif" font-size="14.00" fill="#000000">draw_polyline(point_list, line_width, line_color)</text>
<text text-anchor="start" x="925.5" y="-23.3" font-family="Times,serif" font-size="14.00" fill="#000000">draw_text(text, point, font_size, font_color, font_face, _font_size_coef)</text>
</g>
<!-- 7 -->
<g id="node8" class="node">
<title>7</title>
<polygon fill="none" stroke="#000000" points="1025,-257.5 1025,-522.5 1366,-522.5 1366,-257.5 1025,-257.5"/>
<text text-anchor="middle" x="1195.5" y="-507.3" font-family="Times,serif" font-size="14.00" fill="#000000">SimpleGUICS2Pygame.simpleguics2pygame.frame.Frame</text>
<polyline fill="none" stroke="#000000" points="1025,-499.5 1366,-499.5 "/>
<polyline fill="none" stroke="#000000" points="1025,-475.5 1366,-475.5 "/>
<text text-anchor="start" x="1033" y="-460.3" font-family="Times,serif" font-size="14.00" fill="#000000">add_button(text, button_handler, width)</text>
<text text-anchor="start" x="1033" y="-445.3" font-family="Times,serif" font-size="14.00" fill="#000000">add_input(text, input_handler, width)</text>
<text text-anchor="start" x="1033" y="-430.3" font-family="Times,serif" font-size="14.00" fill="#000000">add_label(text, width)</text>
<text text-anchor="start" x="1033" y="-415.3" font-family="Times,serif" font-size="14.00" fill="#000000">download_canvas_image(filename)</text>
<text text-anchor="start" x="1033" y="-400.3" font-family="Times,serif" font-size="14.00" fill="#000000">get_canvas_image()</text>
<text text-anchor="start" x="1033" y="-385.3" font-family="Times,serif" font-size="14.00" fill="#000000">get_canvas_textwidth(text, font_size, font_face)</text>
<text text-anchor="start" x="1033" y="-370.3" font-family="Times,serif" font-size="14.00" fill="#000000">set_canvas_background(color)</text>
<text text-anchor="start" x="1033" y="-355.3" font-family="Times,serif" font-size="14.00" fill="#000000">set_draw_handler(draw_handler)</text>
<text text-anchor="start" x="1033" y="-340.3" font-family="Times,serif" font-size="14.00" fill="#000000">set_keydown_handler(key_handler)</text>
<text text-anchor="start" x="1033" y="-325.3" font-family="Times,serif" font-size="14.00" fill="#000000">set_keyup_handler(key_handler)</text>
<text text-anchor="start" x="1033" y="-310.3" font-family="Times,serif" font-size="14.00" fill="#000000">set_mouseclick_handler(mouse_handler)</text>
<text text-anchor="start" x="1033" y="-295.3" font-family="Times,serif" font-size="14.00" fill="#000000">set_mousedrag_handler(mouse_handler)</text>
<text text-anchor="start" x="1033" y="-280.3" font-family="Times,serif" font-size="14.00" fill="#000000">start()</text>
<text text-anchor="start" x="1033" y="-265.3" font-family="Times,serif" font-size="14.00" fill="#000000">stop()</text>
</g>
<!-- 4&#45;&gt;7 -->
<g id="edge3" class="edge">
<title>4&#45;&gt;7</title>
<path fill="none" stroke="#000000" d="M1195.5,-190.6689C1195.5,-207.9778 1195.5,-226.5706 1195.5,-245.1928"/>
<polygon fill="#000000" stroke="#000000" points="1195.5001,-245.4213 1199.5,-251.4213 1195.5,-257.4213 1191.5,-251.4212 1195.5001,-245.4213"/>
<text text-anchor="middle" x="1217.5" y="-227.8" font-family="Times,serif" font-size="14.00" fill="#00ff00">_canvas</text>
</g>
<!-- 5 -->
<g id="node6" class="node">
<title>5</title>
<polygon fill="none" stroke="#000000" points="1492,-60.5 1492,-145.5 1845,-145.5 1845,-60.5 1492,-60.5"/>
<text text-anchor="middle" x="1668.5" y="-130.3" font-family="Times,serif" font-size="14.00" fill="#000000">SimpleGUICS2Pygame.simpleguics2pygame.control.Control</text>
<polyline fill="none" stroke="#000000" points="1492,-122.5 1845,-122.5 "/>
<polyline fill="none" stroke="#000000" points="1492,-98.5 1845,-98.5 "/>
<text text-anchor="start" x="1500" y="-83.3" font-family="Times,serif" font-size="14.00" fill="#000000">get_text()</text>
<text text-anchor="start" x="1500" y="-68.3" font-family="Times,serif" font-size="14.00" fill="#000000">set_text(text)</text>
</g>
<!-- 6 -->
<g id="node7" class="node">
<title>6</title>
<polygon fill="none" stroke="#000000" points="1863.5,-60.5 1863.5,-145.5 2267.5,-145.5 2267.5,-60.5 1863.5,-60.5"/>
<text text-anchor="middle" x="2065.5" y="-130.3" font-family="Times,serif" font-size="14.00" fill="#000000">SimpleGUICS2Pygame.simpleguics2pygame.control.TextAreaControl</text>
<polyline fill="none" stroke="#000000" points="1863.5,-122.5 2267.5,-122.5 "/>
<polyline fill="none" stroke="#000000" points="1863.5,-98.5 2267.5,-98.5 "/>
<text text-anchor="start" x="1871.5" y="-83.3" font-family="Times,serif" font-size="14.00" fill="#000000">get_text()</text>
<text text-anchor="start" x="1871.5" y="-68.3" font-family="Times,serif" font-size="14.00" fill="#000000">set_text(input_text)</text>
</g>
<!-- 8 -->
<g id="node9" class="node">
<title>8</title>
<polygon fill="none" stroke="#000000" points="2304.5,-347.5 2304.5,-432.5 2646.5,-432.5 2646.5,-347.5 2304.5,-347.5"/>
<text text-anchor="middle" x="2475.5" y="-417.3" font-family="Times,serif" font-size="14.00" fill="#000000">SimpleGUICS2Pygame.simpleguics2pygame.image.Image</text>
<polyline fill="none" stroke="#000000" points="2304.5,-409.5 2646.5,-409.5 "/>
<polyline fill="none" stroke="#000000" points="2304.5,-385.5 2646.5,-385.5 "/>
<text text-anchor="start" x="2312.5" y="-370.3" font-family="Times,serif" font-size="14.00" fill="#000000">get_height()</text>
<text text-anchor="start" x="2312.5" y="-355.3" font-family="Times,serif" font-size="14.00" fill="#000000">get_width()</text>
</g>
<!-- 9 -->
<g id="node10" class="node">
<title>9</title>
<polygon fill="none" stroke="#000000" points="2285.5,-68 2285.5,-138 2665.5,-138 2665.5,-68 2285.5,-68"/>
<text text-anchor="middle" x="2475.5" y="-122.8" font-family="Times,serif" font-size="14.00" fill="#000000">SimpleGUICS2Pygame.simpleguics2pygame.image._LocalImage</text>
<polyline fill="none" stroke="#000000" points="2285.5,-115 2665.5,-115 "/>
<polyline fill="none" stroke="#000000" points="2285.5,-91 2665.5,-91 "/>
<text text-anchor="middle" x="2475.5" y="-75.8" font-family="Times,serif" font-size="14.00" fill="#000000"> </text>
</g>
<!-- 9&#45;&gt;8 -->
<g id="edge1" class="edge">
<title>9&#45;&gt;8</title>
<path fill="none" stroke="#000000" d="M2475.5,-138.1918C2475.5,-187.8957 2475.5,-279.0457 2475.5,-336.9743"/>
<polygon fill="none" stroke="#000000" points="2472.0001,-337.0332 2475.5,-347.0332 2479.0001,-337.0332 2472.0001,-337.0332"/>
</g>
<!-- 10 -->
<g id="node11" class="node">
<title>10</title>
<polygon fill="none" stroke="#000000" points="2702,-332.5 2702,-447.5 3043,-447.5 3043,-332.5 2702,-332.5"/>
<text text-anchor="middle" x="2872.5" y="-432.3" font-family="Times,serif" font-size="14.00" fill="#000000">SimpleGUICS2Pygame.simpleguics2pygame.sound.Sound</text>
<polyline fill="none" stroke="#000000" points="2702,-424.5 3043,-424.5 "/>
<polyline fill="none" stroke="#000000" points="2702,-400.5 3043,-400.5 "/>
<text text-anchor="start" x="2710" y="-385.3" font-family="Times,serif" font-size="14.00" fill="#000000">pause()</text>
<text text-anchor="start" x="2710" y="-370.3" font-family="Times,serif" font-size="14.00" fill="#000000">play()</text>
<text text-anchor="start" x="2710" y="-355.3" font-family="Times,serif" font-size="14.00" fill="#000000">rewind()</text>
<text text-anchor="start" x="2710" y="-340.3" font-family="Times,serif" font-size="14.00" fill="#000000">set_volume(volume)</text>
</g>
<!-- 11 -->
<g id="node12" class="node">
<title>11</title>
<polygon fill="none" stroke="#000000" points="2683.5,-68 2683.5,-138 3061.5,-138 3061.5,-68 2683.5,-68"/>
<text text-anchor="middle" x="2872.5" y="-122.8" font-family="Times,serif" font-size="14.00" fill="#000000">SimpleGUICS2Pygame.simpleguics2pygame.sound._LocalSound</text>
<polyline fill="none" stroke="#000000" points="2683.5,-115 3061.5,-115 "/>
<polyline fill="none" stroke="#000000" points="2683.5,-91 3061.5,-91 "/>
<text text-anchor="middle" x="2872.5" y="-75.8" font-family="Times,serif" font-size="14.00" fill="#000000"> </text>
</g>
<!-- 11&#45;&gt;10 -->
<g id="edge2" class="edge">
<title>11&#45;&gt;10</title>
<path fill="none" stroke="#000000" d="M2872.5,-138.1918C2872.5,-183.8714 2872.5,-264.5573 2872.5,-322.2898"/>
<polygon fill="none" stroke="#000000" points="2869.0001,-322.4281 2872.5,-332.4281 2876.0001,-322.4281 2869.0001,-322.4281"/>
</g>
<!-- 12 -->
<g id="node13" class="node">
<title>12</title>
<polygon fill="none" stroke="#000000" points="255,-45.5 255,-160.5 592,-160.5 592,-45.5 255,-45.5"/>
<text text-anchor="middle" x="423.5" y="-145.3" font-family="Times,serif" font-size="14.00" fill="#000000">SimpleGUICS2Pygame.simpleguics2pygame.timer.Timer</text>
<polyline fill="none" stroke="#000000" points="255,-137.5 592,-137.5 "/>
<polyline fill="none" stroke="#000000" points="255,-113.5 592,-113.5 "/>
<text text-anchor="start" x="263" y="-98.3" font-family="Times,serif" font-size="14.00" fill="#000000">get_interval()</text>
<text text-anchor="start" x="263" y="-83.3" font-family="Times,serif" font-size="14.00" fill="#000000">is_running()</text>
<text text-anchor="start" x="263" y="-68.3" font-family="Times,serif" font-size="14.00" fill="#000000">start()</text>
<text text-anchor="start" x="263" y="-53.3" font-family="Times,serif" font-size="14.00" fill="#000000">stop()</text>
</g>
<!-- 12&#45;&gt;1 -->
<g id="edge4" class="edge">
<title>12&#45;&gt;1</title>
<path fill="none" stroke="#000000" d="M392.3199,-160.7335C367.2527,-207.1482 331.9735,-272.4716 305.482,-321.5237"/>
<polygon fill="#000000" stroke="#000000" points="305.3327,-321.8002 306.001,-328.9803 299.6303,-332.3588 298.962,-325.1787 305.3327,-321.8002"/>
<text text-anchor="middle" x="374" y="-227.8" font-family="Times,serif" font-size="14.00" fill="#00ff00">_timer</text>
</g>
<!-- 12&#45;&gt;3 -->
<g id="edge5" class="edge">
<title>12&#45;&gt;3</title>
<path fill="none" stroke="#000000" d="M454.6801,-160.7335C469.2781,-187.7633 487.3393,-221.2056 505.1113,-254.1126"/>
<polygon fill="#000000" stroke="#000000" points="505.1642,-254.2105 511.5349,-257.589 510.8666,-264.7691 504.4959,-261.3906 505.1642,-254.2105"/>
<text text-anchor="middle" x="518" y="-227.8" font-family="Times,serif" font-size="14.00" fill="#00ff00">__timer</text>
</g>
</g>
</svg>
