<?xml version="1.0" encoding="UTF-8" standalone="no"?>
<!DOCTYPE svg PUBLIC "-//W3C//DTD SVG 1.1//EN"
 "http://www.w3.org/Graphics/SVG/1.1/DTD/svg11.dtd">
<!-- Generated by graphviz version 2.40.1 (20161225.0304)
 -->
<!-- Title: G Pages: 1 -->
<svg width="1080pt" height="520pt"
 viewBox="0.00 0.00 1080.18 520.34" xmlns="http://www.w3.org/2000/svg" xmlns:xlink="http://www.w3.org/1999/xlink">
<g id="graph0" class="graph" transform="scale(1 1) rotate(0) translate(4 516.3402)">
<title>G</title><style>.edge>path:hover{stroke-width:8}</style>
<polygon fill="#ffffff" stroke="transparent" points="-4,4 -4,-516.3402 1076.1784,-516.3402 1076.1784,4 -4,4"/>
<!-- SimpleGUICS2Pygame_simpleguics2pygame -->
<g id="node1" class="node">
<title>SimpleGUICS2Pygame_simpleguics2pygame</title><style>.edge>path:hover{stroke-width:8}</style>
<ellipse fill="#9f0404" stroke="#000000" cx="314.1712" cy="-21.2132" rx="86.9483" ry="21.4286"/>
<text text-anchor="middle" x="314.1712" y="-24.2132" font-family="Helvetica,sans-Serif" font-size="10.00" fill="#ffffff">SimpleGUICS2Pygame.</text>
<text text-anchor="middle" x="314.1712" y="-13.2132" font-family="Helvetica,sans-Serif" font-size="10.00" fill="#ffffff">simpleguics2pygame</text>
</g>
<!-- SimpleGUICS2Pygame_simpleguics2pygame__arguments -->
<g id="node2" class="node">
<title>SimpleGUICS2Pygame_simpleguics2pygame__arguments</title><style>.edge>path:hover{stroke-width:8}</style>
<ellipse fill="#f31616" stroke="#000000" cx="506.1712" cy="-483.3488" rx="86.9483" ry="28.9828"/>
<text text-anchor="middle" x="506.1712" y="-491.8488" font-family="Helvetica,sans-Serif" font-size="10.00" fill="#ffffff">SimpleGUICS2Pygame.</text>
<text text-anchor="middle" x="506.1712" y="-480.8488" font-family="Helvetica,sans-Serif" font-size="10.00" fill="#ffffff">simpleguics2pygame.</text>
<text text-anchor="middle" x="506.1712" y="-469.8488" font-family="Helvetica,sans-Serif" font-size="10.00" fill="#ffffff">_arguments</text>
</g>
<!-- SimpleGUICS2Pygame_simpleguics2pygame__arguments&#45;&gt;SimpleGUICS2Pygame_simpleguics2pygame -->
<g id="edge1" class="edge">
<title>SimpleGUICS2Pygame_simpleguics2pygame__arguments&#45;&gt;SimpleGUICS2Pygame_simpleguics2pygame</title><style>.edge>path:hover{stroke-width:8}</style>
<path fill="none" stroke="#000000" d="M425.7467,-472.2674C370.9847,-460.6202 300.7851,-436.984 257.1712,-389.3661"/>
<path fill="none" stroke="#000000" d="M257.1712,-389.3661C196.0382,-322.6207 133.9156,-382.0625 64.1712,-324.3747 9.0525,-278.7843 -15.8496,-238.6393 11.1712,-172.4092 45.8148,-87.4947 150.7473,-49.9252 227.4424,-33.5308"/>
<polygon fill="#f31616" stroke="#000000" points="228.5006,-36.8866 237.5931,-31.4482 227.0937,-30.0295 228.5006,-36.8866"/>
</g>
<!-- SimpleGUICS2Pygame_simpleguics2pygame__fonts -->
<g id="node4" class="node">
<title>SimpleGUICS2Pygame_simpleguics2pygame__fonts</title><style>.edge>path:hover{stroke-width:8}</style>
<ellipse fill="#c43131" stroke="#000000" cx="160.1712" cy="-295.3833" rx="86.9483" ry="28.9828"/>
<text text-anchor="middle" x="160.1712" y="-303.8833" font-family="Helvetica,sans-Serif" font-size="10.00" fill="#ffffff">SimpleGUICS2Pygame.</text>
<text text-anchor="middle" x="160.1712" y="-292.8833" font-family="Helvetica,sans-Serif" font-size="10.00" fill="#ffffff">simpleguics2pygame.</text>
<text text-anchor="middle" x="160.1712" y="-281.8833" font-family="Helvetica,sans-Serif" font-size="10.00" fill="#ffffff">_fonts</text>
</g>
<!-- SimpleGUICS2Pygame_simpleguics2pygame__arguments&#45;&gt;SimpleGUICS2Pygame_simpleguics2pygame__fonts -->
<g id="edge2" class="edge">
<title>SimpleGUICS2Pygame_simpleguics2pygame__arguments&#45;&gt;SimpleGUICS2Pygame_simpleguics2pygame__fonts</title><style>.edge>path:hover{stroke-width:8}</style>
<path fill="none" stroke="#000000" d="M257.1712,-389.3661C238.4631,-368.9405 216.3672,-347.3545 197.9931,-330.0278"/>
<polygon fill="#f31616" stroke="#000000" points="200.0564,-327.1645 190.3671,-322.8787 195.2688,-332.2714 200.0564,-327.1645"/>
</g>
<!-- SimpleGUICS2Pygame_simpleguics2pygame__media -->
<g id="node6" class="node">
<title>SimpleGUICS2Pygame_simpleguics2pygame__media</title><style>.edge>path:hover{stroke-width:8}</style>
<ellipse fill="#c43131" stroke="#000000" cx="506.1712" cy="-389.3661" rx="86.9483" ry="28.9828"/>
<text text-anchor="middle" x="506.1712" y="-397.8661" font-family="Helvetica,sans-Serif" font-size="10.00" fill="#ffffff">SimpleGUICS2Pygame.</text>
<text text-anchor="middle" x="506.1712" y="-386.8661" font-family="Helvetica,sans-Serif" font-size="10.00" fill="#ffffff">simpleguics2pygame.</text>
<text text-anchor="middle" x="506.1712" y="-375.8661" font-family="Helvetica,sans-Serif" font-size="10.00" fill="#ffffff">_media</text>
</g>
<!-- SimpleGUICS2Pygame_simpleguics2pygame__arguments&#45;&gt;SimpleGUICS2Pygame_simpleguics2pygame__media -->
<g id="edge3" class="edge">
<title>SimpleGUICS2Pygame_simpleguics2pygame__arguments&#45;&gt;SimpleGUICS2Pygame_simpleguics2pygame__media</title><style>.edge>path:hover{stroke-width:8}</style>
<path fill="none" stroke="#000000" d="M506.1712,-454.1273C506.1712,-446.0825 506.1712,-437.2228 506.1712,-428.7076"/>
<polygon fill="#f31616" stroke="#000000" points="509.6713,-428.5695 506.1712,-418.5695 502.6713,-428.5696 509.6713,-428.5695"/>
</g>
<!-- SimpleGUICS2Pygame_simpleguics2pygame_frame -->
<g id="node10" class="node">
<title>SimpleGUICS2Pygame_simpleguics2pygame_frame</title><style>.edge>path:hover{stroke-width:8}</style>
<ellipse fill="#6b2e2e" stroke="#000000" cx="468.1712" cy="-107.4178" rx="86.9483" ry="28.9828"/>
<text text-anchor="middle" x="468.1712" y="-115.9178" font-family="Helvetica,sans-Serif" font-size="10.00" fill="#ffffff">SimpleGUICS2Pygame.</text>
<text text-anchor="middle" x="468.1712" y="-104.9178" font-family="Helvetica,sans-Serif" font-size="10.00" fill="#ffffff">simpleguics2pygame.</text>
<text text-anchor="middle" x="468.1712" y="-93.9178" font-family="Helvetica,sans-Serif" font-size="10.00" fill="#ffffff">frame</text>
</g>
<!-- SimpleGUICS2Pygame_simpleguics2pygame__arguments&#45;&gt;SimpleGUICS2Pygame_simpleguics2pygame_frame -->
<g id="edge4" class="edge">
<title>SimpleGUICS2Pygame_simpleguics2pygame__arguments&#45;&gt;SimpleGUICS2Pygame_simpleguics2pygame_frame</title><style>.edge>path:hover{stroke-width:8}</style>
<path fill="none" stroke="#000000" d="M257.1712,-389.3661C196.6069,-323.2416 365.4333,-358.9423 448.1712,-324.3747 474.7624,-313.2649 483.5091,-313.1864 506.1712,-295.3833"/>
<path fill="none" stroke="#000000" d="M506.1712,-295.3833C518.2856,-285.8663 513.5284,-276.4805 525.1712,-266.3919 564.1109,-232.6505 623.2958,-252.8814 621.1712,-201.4005"/>
</g>
<!-- SimpleGUICS2Pygame_simpleguics2pygame_sound -->
<g id="node13" class="node">
<title>SimpleGUICS2Pygame_simpleguics2pygame_sound</title><style>.edge>path:hover{stroke-width:8}</style>
<ellipse fill="#a44646" stroke="#000000" cx="966.1712" cy="-295.3833" rx="86.9483" ry="28.9828"/>
<text text-anchor="middle" x="966.1712" y="-303.8833" font-family="Helvetica,sans-Serif" font-size="10.00" fill="#ffffff">SimpleGUICS2Pygame.</text>
<text text-anchor="middle" x="966.1712" y="-292.8833" font-family="Helvetica,sans-Serif" font-size="10.00" fill="#ffffff">simpleguics2pygame.</text>
<text text-anchor="middle" x="966.1712" y="-281.8833" font-family="Helvetica,sans-Serif" font-size="10.00" fill="#ffffff">sound</text>
</g>
<!-- SimpleGUICS2Pygame_simpleguics2pygame__arguments&#45;&gt;SimpleGUICS2Pygame_simpleguics2pygame_sound -->
<g id="edge5" class="edge">
<title>SimpleGUICS2Pygame_simpleguics2pygame__arguments&#45;&gt;SimpleGUICS2Pygame_simpleguics2pygame_sound</title><style>.edge>path:hover{stroke-width:8}</style>
<path fill="none" stroke="#000000" d="M851.1712,-389.3661C876.8845,-370.0671 904.8311,-347.2724 926.7357,-328.9654"/>
<polygon fill="#f31616" stroke="#000000" points="929.1046,-331.5466 934.5171,-322.4385 924.6061,-326.1834 929.1046,-331.5466"/>
</g>
<!-- SimpleGUICS2Pygame_simpleguics2pygame_timer -->
<g id="node14" class="node">
<title>SimpleGUICS2Pygame_simpleguics2pygame_timer</title><style>.edge>path:hover{stroke-width:8}</style>
<ellipse fill="#b83d3d" stroke="#000000" cx="966.1712" cy="-201.4005" rx="86.9483" ry="28.9828"/>
<text text-anchor="middle" x="966.1712" y="-209.9005" font-family="Helvetica,sans-Serif" font-size="10.00" fill="#ffffff">SimpleGUICS2Pygame.</text>
<text text-anchor="middle" x="966.1712" y="-198.9005" font-family="Helvetica,sans-Serif" font-size="10.00" fill="#ffffff">simpleguics2pygame.</text>
<text text-anchor="middle" x="966.1712" y="-187.9005" font-family="Helvetica,sans-Serif" font-size="10.00" fill="#ffffff">timer</text>
</g>
<!-- SimpleGUICS2Pygame_simpleguics2pygame__arguments&#45;&gt;SimpleGUICS2Pygame_simpleguics2pygame_timer -->
<g id="edge6" class="edge">
<title>SimpleGUICS2Pygame_simpleguics2pygame__arguments&#45;&gt;SimpleGUICS2Pygame_simpleguics2pygame_timer</title><style>.edge>path:hover{stroke-width:8}</style>
<path fill="none" stroke="#000000" d="M582.5277,-469.3798C670.6787,-452.0919 808.9688,-421.0407 851.1712,-389.3661"/>
<path fill="none" stroke="#000000" d="M851.1712,-389.3661C895.4026,-356.1685 840.5848,-313.116 870.1712,-266.3919 879.2217,-252.0989 892.6784,-240.1853 906.6721,-230.6295"/>
<polygon fill="#f31616" stroke="#000000" points="908.9154,-233.3473 915.4199,-224.9841 905.1198,-227.4657 908.9154,-233.3473"/>
</g>
<!-- SimpleGUICS2Pygame_simpleguics2pygame__colors -->
<g id="node3" class="node">
<title>SimpleGUICS2Pygame_simpleguics2pygame__colors</title><style>.edge>path:hover{stroke-width:8}</style>
<ellipse fill="#ce3b3b" stroke="#000000" cx="352.1712" cy="-295.3833" rx="86.9483" ry="28.9828"/>
<text text-anchor="middle" x="352.1712" y="-303.8833" font-family="Helvetica,sans-Serif" font-size="10.00" fill="#ffffff">SimpleGUICS2Pygame.</text>
<text text-anchor="middle" x="352.1712" y="-292.8833" font-family="Helvetica,sans-Serif" font-size="10.00" fill="#ffffff">simpleguics2pygame.</text>
<text text-anchor="middle" x="352.1712" y="-281.8833" font-family="Helvetica,sans-Serif" font-size="10.00" fill="#ffffff">_colors</text>
</g>
<!-- SimpleGUICS2Pygame_simpleguics2pygame_canvas -->
<g id="node8" class="node">
<title>SimpleGUICS2Pygame_simpleguics2pygame_canvas</title><style>.edge>path:hover{stroke-width:8}</style>
<ellipse fill="#a83838" stroke="#000000" cx="314.1712" cy="-201.4005" rx="86.9483" ry="28.9828"/>
<text text-anchor="middle" x="314.1712" y="-209.9005" font-family="Helvetica,sans-Serif" font-size="10.00" fill="#ffffff">SimpleGUICS2Pygame.</text>
<text text-anchor="middle" x="314.1712" y="-198.9005" font-family="Helvetica,sans-Serif" font-size="10.00" fill="#ffffff">simpleguics2pygame.</text>
<text text-anchor="middle" x="314.1712" y="-187.9005" font-family="Helvetica,sans-Serif" font-size="10.00" fill="#ffffff">canvas</text>
</g>
<!-- SimpleGUICS2Pygame_simpleguics2pygame__colors&#45;&gt;SimpleGUICS2Pygame_simpleguics2pygame_canvas -->
<g id="edge7" class="edge">
<title>SimpleGUICS2Pygame_simpleguics2pygame__colors&#45;&gt;SimpleGUICS2Pygame_simpleguics2pygame_canvas</title><style>.edge>path:hover{stroke-width:8}</style>
<path fill="none" stroke="#000000" d="M340.4598,-266.4185C337.0647,-258.0216 333.3036,-248.7196 329.7131,-239.8393"/>
<polygon fill="#ce3b3b" stroke="#000000" points="332.9026,-238.3904 325.9092,-230.4315 326.413,-241.0143 332.9026,-238.3904"/>
</g>
<!-- SimpleGUICS2Pygame_simpleguics2pygame_control -->
<g id="node9" class="node">
<title>SimpleGUICS2Pygame_simpleguics2pygame_control</title><style>.edge>path:hover{stroke-width:8}</style>
<ellipse fill="#b03a3a" stroke="#000000" cx="122.1712" cy="-201.4005" rx="86.9483" ry="28.9828"/>
<text text-anchor="middle" x="122.1712" y="-209.9005" font-family="Helvetica,sans-Serif" font-size="10.00" fill="#ffffff">SimpleGUICS2Pygame.</text>
<text text-anchor="middle" x="122.1712" y="-198.9005" font-family="Helvetica,sans-Serif" font-size="10.00" fill="#ffffff">simpleguics2pygame.</text>
<text text-anchor="middle" x="122.1712" y="-187.9005" font-family="Helvetica,sans-Serif" font-size="10.00" fill="#ffffff">control</text>
</g>
<!-- SimpleGUICS2Pygame_simpleguics2pygame__colors&#45;&gt;SimpleGUICS2Pygame_simpleguics2pygame_control -->
<g id="edge8" class="edge">
<title>SimpleGUICS2Pygame_simpleguics2pygame__colors&#45;&gt;SimpleGUICS2Pygame_simpleguics2pygame_control</title><style>.edge>path:hover{stroke-width:8}</style>
<path fill="none" stroke="#000000" d="M297.0804,-272.8721C263.9173,-259.321 221.5324,-242.0016 186.7923,-227.8061"/>
<polygon fill="#ce3b3b" stroke="#000000" points="187.7914,-224.4335 177.2105,-223.8907 185.1436,-230.9134 187.7914,-224.4335"/>
</g>
<!-- SimpleGUICS2Pygame_simpleguics2pygame__colors&#45;&gt;SimpleGUICS2Pygame_simpleguics2pygame_frame -->
<g id="edge9" class="edge">
<title>SimpleGUICS2Pygame_simpleguics2pygame__colors&#45;&gt;SimpleGUICS2Pygame_simpleguics2pygame_frame</title><style>.edge>path:hover{stroke-width:8}</style>
<path fill="none" stroke="#000000" d="M424.8038,-279.3052C493.2909,-263.6947 587.575,-240.8674 602.1712,-230.3919 614.6871,-221.4094 621.8064,-216.7931 621.1712,-201.4005"/>
<path fill="none" stroke="#000000" d="M621.1712,-201.4005C619.6253,-163.945 585.7712,-140.9403 550.303,-127.075"/>
<polygon fill="#ce3b3b" stroke="#000000" points="551.3713,-123.7388 540.7777,-123.5731 548.9558,-130.3088 551.3713,-123.7388"/>
</g>
<!-- SimpleGUICS2Pygame_simpleguics2pygame__fonts&#45;&gt;SimpleGUICS2Pygame_simpleguics2pygame_canvas -->
<g id="edge10" class="edge">
<title>SimpleGUICS2Pygame_simpleguics2pygame__fonts&#45;&gt;SimpleGUICS2Pygame_simpleguics2pygame_canvas</title><style>.edge>path:hover{stroke-width:8}</style>
<path fill="none" stroke="#000000" d="M202.2523,-269.7021C221.2584,-258.1031 243.8656,-244.3064 263.7695,-232.1596"/>
<polygon fill="#c43131" stroke="#000000" points="265.695,-235.0848 272.4077,-226.8878 262.0484,-229.1096 265.695,-235.0848"/>
</g>
<!-- SimpleGUICS2Pygame_simpleguics2pygame__fonts&#45;&gt;SimpleGUICS2Pygame_simpleguics2pygame_control -->
<g id="edge11" class="edge">
<title>SimpleGUICS2Pygame_simpleguics2pygame__fonts&#45;&gt;SimpleGUICS2Pygame_simpleguics2pygame_control</title><style>.edge>path:hover{stroke-width:8}</style>
<path fill="none" stroke="#000000" d="M148.4598,-266.4185C145.0647,-258.0216 141.3036,-248.7196 137.7131,-239.8393"/>
<polygon fill="#c43131" stroke="#000000" points="140.9026,-238.3904 133.9092,-230.4315 134.413,-241.0143 140.9026,-238.3904"/>
</g>
<!-- SimpleGUICS2Pygame_simpleguics2pygame__fonts&#45;&gt;SimpleGUICS2Pygame_simpleguics2pygame_frame -->
<g id="edge12" class="edge">
<title>SimpleGUICS2Pygame_simpleguics2pygame__fonts&#45;&gt;SimpleGUICS2Pygame_simpleguics2pygame_frame</title><style>.edge>path:hover{stroke-width:8}</style>
<path fill="none" stroke="#000000" d="M89.9973,-278.0973C65.4761,-268.3232 40.5144,-253.2898 26.1712,-230.3919 12.491,-208.5527 9.0614,-191.6797 26.1712,-172.4092 71.0444,-121.8691 261.4635,-147.2716 328.1712,-136.4092 346.8609,-133.3658 366.8443,-129.5617 385.6905,-125.7205"/>
<polygon fill="#c43131" stroke="#000000" points="386.6409,-129.0982 395.7276,-123.65 385.2267,-122.2425 386.6409,-129.0982"/>
</g>
<!-- SimpleGUICS2Pygame_simpleguics2pygame__joypads -->
<g id="node5" class="node">
<title>SimpleGUICS2Pygame_simpleguics2pygame__joypads</title><style>.edge>path:hover{stroke-width:8}</style>
<ellipse fill="#b65353" stroke="#000000" cx="506.1712" cy="-201.4005" rx="86.9483" ry="28.9828"/>
<text text-anchor="middle" x="506.1712" y="-209.9005" font-family="Helvetica,sans-Serif" font-size="10.00" fill="#ffffff">SimpleGUICS2Pygame.</text>
<text text-anchor="middle" x="506.1712" y="-198.9005" font-family="Helvetica,sans-Serif" font-size="10.00" fill="#ffffff">simpleguics2pygame.</text>
<text text-anchor="middle" x="506.1712" y="-187.9005" font-family="Helvetica,sans-Serif" font-size="10.00" fill="#ffffff">_joypads</text>
</g>
<!-- SimpleGUICS2Pygame_simpleguics2pygame__joypads&#45;&gt;SimpleGUICS2Pygame_simpleguics2pygame_frame -->
<g id="edge13" class="edge">
<title>SimpleGUICS2Pygame_simpleguics2pygame__joypads&#45;&gt;SimpleGUICS2Pygame_simpleguics2pygame_frame</title><style>.edge>path:hover{stroke-width:8}</style>
<path fill="none" stroke="#000000" d="M494.4598,-172.4357C491.0647,-164.0388 487.3036,-154.7368 483.7131,-145.8565"/>
<polygon fill="#b65353" stroke="#000000" points="486.9026,-144.4076 479.9092,-136.4487 480.413,-147.0316 486.9026,-144.4076"/>
</g>
<!-- SimpleGUICS2Pygame_simpleguics2pygame__media&#45;&gt;SimpleGUICS2Pygame_simpleguics2pygame_frame -->
<g id="edge14" class="edge">
<title>SimpleGUICS2Pygame_simpleguics2pygame__media&#45;&gt;SimpleGUICS2Pygame_simpleguics2pygame_frame</title><style>.edge>path:hover{stroke-width:8}</style>
<path fill="none" stroke="#000000" d="M495.7952,-360.3729C490.0726,-338.5986 487.4383,-310.0996 506.1712,-295.3833"/>
</g>
<!-- SimpleGUICS2Pygame_simpleguics2pygame_image -->
<g id="node11" class="node">
<title>SimpleGUICS2Pygame_simpleguics2pygame_image</title><style>.edge>path:hover{stroke-width:8}</style>
<ellipse fill="#c43131" stroke="#000000" cx="621.1712" cy="-295.3833" rx="86.9483" ry="28.9828"/>
<text text-anchor="middle" x="621.1712" y="-303.8833" font-family="Helvetica,sans-Serif" font-size="10.00" fill="#ffffff">SimpleGUICS2Pygame.</text>
<text text-anchor="middle" x="621.1712" y="-292.8833" font-family="Helvetica,sans-Serif" font-size="10.00" fill="#ffffff">simpleguics2pygame.</text>
<text text-anchor="middle" x="621.1712" y="-281.8833" font-family="Helvetica,sans-Serif" font-size="10.00" fill="#ffffff">image</text>
</g>
<!-- SimpleGUICS2Pygame_simpleguics2pygame__media&#45;&gt;SimpleGUICS2Pygame_simpleguics2pygame_image -->
<g id="edge15" class="edge">
<title>SimpleGUICS2Pygame_simpleguics2pygame__media&#45;&gt;SimpleGUICS2Pygame_simpleguics2pygame_image</title><style>.edge>path:hover{stroke-width:8}</style>
<path fill="none" stroke="#000000" d="M539.1256,-362.4344C551.9975,-351.9149 566.8898,-339.7443 580.425,-328.6828"/>
<polygon fill="#c43131" stroke="#000000" points="582.6836,-331.3571 588.212,-322.3189 578.254,-325.9369 582.6836,-331.3571"/>
</g>
<!-- SimpleGUICS2Pygame_simpleguics2pygame__media&#45;&gt;SimpleGUICS2Pygame_simpleguics2pygame_sound -->
<g id="edge16" class="edge">
<title>SimpleGUICS2Pygame_simpleguics2pygame__media&#45;&gt;SimpleGUICS2Pygame_simpleguics2pygame_sound</title><style>.edge>path:hover{stroke-width:8}</style>
<path fill="none" stroke="#000000" d="M580.3336,-374.2139C662.7113,-357.3833 795.4434,-330.2647 881.7457,-312.6323"/>
<polygon fill="#c43131" stroke="#000000" points="882.6755,-316.0147 891.7725,-310.5837 881.2742,-309.1564 882.6755,-316.0147"/>
</g>
<!-- SimpleGUICS2Pygame_simpleguics2pygame__pygame_init -->
<g id="node7" class="node">
<title>SimpleGUICS2Pygame_simpleguics2pygame__pygame_init</title><style>.edge>path:hover{stroke-width:8}</style>
<ellipse fill="#b65353" stroke="#000000" cx="199.1712" cy="-107.4178" rx="86.9483" ry="28.9828"/>
<text text-anchor="middle" x="199.1712" y="-115.9178" font-family="Helvetica,sans-Serif" font-size="10.00" fill="#ffffff">SimpleGUICS2Pygame.</text>
<text text-anchor="middle" x="199.1712" y="-104.9178" font-family="Helvetica,sans-Serif" font-size="10.00" fill="#ffffff">simpleguics2pygame.</text>
<text text-anchor="middle" x="199.1712" y="-93.9178" font-family="Helvetica,sans-Serif" font-size="10.00" fill="#ffffff">_pygame_init</text>
</g>
<!-- SimpleGUICS2Pygame_simpleguics2pygame__pygame_init&#45;&gt;SimpleGUICS2Pygame_simpleguics2pygame -->
<g id="edge17" class="edge">
<title>SimpleGUICS2Pygame_simpleguics2pygame__pygame_init&#45;&gt;SimpleGUICS2Pygame_simpleguics2pygame</title><style>.edge>path:hover{stroke-width:8}</style>
<path fill="none" stroke="#000000" d="M234.6133,-80.8502C248.7364,-70.2635 264.952,-58.1081 279.0437,-47.5449"/>
<polygon fill="#b65353" stroke="#000000" points="281.1612,-50.3319 287.0634,-41.5333 276.9626,-44.7308 281.1612,-50.3319"/>
</g>
<!-- SimpleGUICS2Pygame_simpleguics2pygame_canvas&#45;&gt;SimpleGUICS2Pygame_simpleguics2pygame -->
<g id="edge18" class="edge">
<title>SimpleGUICS2Pygame_simpleguics2pygame_canvas&#45;&gt;SimpleGUICS2Pygame_simpleguics2pygame</title><style>.edge>path:hover{stroke-width:8}</style>
<path fill="none" stroke="#000000" d="M308.5018,-172.293C306.1081,-153.1196 305.5706,-127.8736 314.1712,-107.4178"/>
</g>
<!-- SimpleGUICS2Pygame_simpleguics2pygame_canvas&#45;&gt;SimpleGUICS2Pygame_simpleguics2pygame_frame -->
<g id="edge19" class="edge">
<title>SimpleGUICS2Pygame_simpleguics2pygame_canvas&#45;&gt;SimpleGUICS2Pygame_simpleguics2pygame_frame</title><style>.edge>path:hover{stroke-width:8}</style>
<path fill="none" stroke="#000000" d="M356.2523,-175.7193C375.2584,-164.1203 397.8656,-150.3237 417.7695,-138.1768"/>
<polygon fill="#a83838" stroke="#000000" points="419.695,-141.1021 426.4077,-132.9051 416.0484,-135.1269 419.695,-141.1021"/>
</g>
<!-- SimpleGUICS2Pygame_simpleguics2pygame_control&#45;&gt;SimpleGUICS2Pygame_simpleguics2pygame -->
<g id="edge20" class="edge">
<title>SimpleGUICS2Pygame_simpleguics2pygame_control&#45;&gt;SimpleGUICS2Pygame_simpleguics2pygame</title><style>.edge>path:hover{stroke-width:8}</style>
<path fill="none" stroke="#000000" d="M186.6395,-181.8152C228.2557,-168.3065 277.7627,-150.3436 295.1712,-136.4092 307.1984,-126.7821 308.2002,-121.6192 314.1712,-107.4178"/>
<path fill="none" stroke="#000000" d="M314.1712,-107.4178C321.3766,-90.2803 321.5894,-69.4773 319.8992,-52.6011"/>
<polygon fill="#b03a3a" stroke="#000000" points="323.3704,-52.152 318.6464,-42.6686 316.4254,-53.028 323.3704,-52.152"/>
</g>
<!-- SimpleGUICS2Pygame_simpleguics2pygame_control&#45;&gt;SimpleGUICS2Pygame_simpleguics2pygame_frame -->
<g id="edge21" class="edge">
<title>SimpleGUICS2Pygame_simpleguics2pygame_control&#45;&gt;SimpleGUICS2Pygame_simpleguics2pygame_frame</title><style>.edge>path:hover{stroke-width:8}</style>
<path fill="none" stroke="#000000" d="M186.102,-181.7155C196.7897,-178.5334 207.779,-175.3279 218.1712,-172.4092 274.922,-156.4699 339.3038,-139.7647 388.5187,-127.2824"/>
<polygon fill="#b03a3a" stroke="#000000" points="389.6316,-130.6111 398.467,-124.7643 387.9139,-123.8252 389.6316,-130.6111"/>
</g>
<!-- SimpleGUICS2Pygame_simpleguics2pygame_frame&#45;&gt;SimpleGUICS2Pygame_simpleguics2pygame -->
<g id="edge22" class="edge">
<title>SimpleGUICS2Pygame_simpleguics2pygame_frame&#45;&gt;SimpleGUICS2Pygame_simpleguics2pygame</title><style>.edge>path:hover{stroke-width:8}</style>
<path fill="none" stroke="#000000" d="M423.628,-82.4838C403.0446,-70.9619 378.6737,-57.3198 358.1592,-45.8364"/>
<polygon fill="#6b2e2e" stroke="#000000" points="359.7655,-42.7245 349.3299,-40.894 356.3463,-48.8327 359.7655,-42.7245"/>
</g>
<!-- SimpleGUICS2Pygame_simpleguics2pygame_image&#45;&gt;SimpleGUICS2Pygame_simpleguics2pygame -->
<g id="edge23" class="edge">
<title>SimpleGUICS2Pygame_simpleguics2pygame_image&#45;&gt;SimpleGUICS2Pygame_simpleguics2pygame</title><style>.edge>path:hover{stroke-width:8}</style>
<path fill="none" stroke="#000000" d="M701.876,-284.4945C744.0899,-275.5498 794.6412,-259.3999 832.1712,-230.3919 833.7598,-229.164 909.489,-108.9326 908.1712,-107.4178"/>
</g>
<!-- SimpleGUICS2Pygame_simpleguics2pygame_image&#45;&gt;SimpleGUICS2Pygame_simpleguics2pygame_canvas -->
<g id="edge24" class="edge">
<title>SimpleGUICS2Pygame_simpleguics2pygame_image&#45;&gt;SimpleGUICS2Pygame_simpleguics2pygame_canvas</title><style>.edge>path:hover{stroke-width:8}</style>
<path fill="none" stroke="#000000" d="M556.8139,-275.6814C507.5905,-260.6125 439.6515,-239.8142 388.1808,-224.0573"/>
<polygon fill="#c43131" stroke="#000000" points="389.0302,-220.6571 378.4437,-221.0765 386.9811,-227.3505 389.0302,-220.6571"/>
</g>
<!-- SimpleGUICS2Pygame_simpleguics2pygame_image&#45;&gt;SimpleGUICS2Pygame_simpleguics2pygame_frame -->
<g id="edge25" class="edge">
<title>SimpleGUICS2Pygame_simpleguics2pygame_image&#45;&gt;SimpleGUICS2Pygame_simpleguics2pygame_frame</title><style>.edge>path:hover{stroke-width:8}</style>
<path fill="none" stroke="#000000" d="M621.7909,-266.1601C622.0311,-247.6031 622.066,-223.083 621.1712,-201.4005"/>
</g>
<!-- SimpleGUICS2Pygame_simpleguics2pygame_keys -->
<g id="node12" class="node">
<title>SimpleGUICS2Pygame_simpleguics2pygame_keys</title><style>.edge>path:hover{stroke-width:8}</style>
<ellipse fill="#c24747" stroke="#000000" cx="736.1712" cy="-201.4005" rx="86.9483" ry="28.9828"/>
<text text-anchor="middle" x="736.1712" y="-209.9005" font-family="Helvetica,sans-Serif" font-size="10.00" fill="#ffffff">SimpleGUICS2Pygame.</text>
<text text-anchor="middle" x="736.1712" y="-198.9005" font-family="Helvetica,sans-Serif" font-size="10.00" fill="#ffffff">simpleguics2pygame.</text>
<text text-anchor="middle" x="736.1712" y="-187.9005" font-family="Helvetica,sans-Serif" font-size="10.00" fill="#ffffff">keys</text>
</g>
<!-- SimpleGUICS2Pygame_simpleguics2pygame_keys&#45;&gt;SimpleGUICS2Pygame_simpleguics2pygame -->
<g id="edge26" class="edge">
<title>SimpleGUICS2Pygame_simpleguics2pygame_keys&#45;&gt;SimpleGUICS2Pygame_simpleguics2pygame</title><style>.edge>path:hover{stroke-width:8}</style>
<path fill="none" stroke="#000000" d="M797.3411,-180.6199C853.711,-159.8293 926.123,-128.0517 908.1712,-107.4178"/>
<path fill="none" stroke="#000000" d="M908.1712,-107.4178C875.8157,-70.2282 566.7699,-40.9191 407.7377,-28.1588"/>
<polygon fill="#c24747" stroke="#000000" points="407.7303,-24.6472 397.484,-27.3423 407.1746,-31.6251 407.7303,-24.6472"/>
</g>
<!-- SimpleGUICS2Pygame_simpleguics2pygame_keys&#45;&gt;SimpleGUICS2Pygame_simpleguics2pygame_frame -->
<g id="edge27" class="edge">
<title>SimpleGUICS2Pygame_simpleguics2pygame_keys&#45;&gt;SimpleGUICS2Pygame_simpleguics2pygame_frame</title><style>.edge>path:hover{stroke-width:8}</style>
<path fill="none" stroke="#000000" d="M676.0267,-180.309C634.9927,-165.9191 580.5213,-146.817 537.6356,-131.7777"/>
<polygon fill="#c24747" stroke="#000000" points="538.7097,-128.4455 528.1149,-128.439 536.3932,-135.0511 538.7097,-128.4455"/>
</g>
<!-- SimpleGUICS2Pygame_simpleguics2pygame_sound&#45;&gt;SimpleGUICS2Pygame_simpleguics2pygame -->
<g id="edge28" class="edge">
<title>SimpleGUICS2Pygame_simpleguics2pygame_sound&#45;&gt;SimpleGUICS2Pygame_simpleguics2pygame</title><style>.edge>path:hover{stroke-width:8}</style>
<path fill="none" stroke="#000000" d="M1019.1606,-272.2011C1036.0253,-261.977 1052.7374,-248.1709 1062.1712,-230.3919 1074.2501,-207.6279 1076.417,-193.8837 1062.1712,-172.4092 1021.1034,-110.5026 956.8583,-163.5297 908.1712,-107.4178"/>
</g>
<!-- SimpleGUICS2Pygame_simpleguics2pygame_timer&#45;&gt;SimpleGUICS2Pygame_simpleguics2pygame -->
<g id="edge29" class="edge">
<title>SimpleGUICS2Pygame_simpleguics2pygame_timer&#45;&gt;SimpleGUICS2Pygame_simpleguics2pygame</title><style>.edge>path:hover{stroke-width:8}</style>
<path fill="none" stroke="#000000" d="M951.6323,-172.6283C941.0356,-153.1305 925.5383,-127.3797 908.1712,-107.4178"/>
</g>
<!-- SimpleGUICS2Pygame_simpleguics2pygame_timer&#45;&gt;SimpleGUICS2Pygame_simpleguics2pygame_frame -->
<g id="edge30" class="edge">
<title>SimpleGUICS2Pygame_simpleguics2pygame_timer&#45;&gt;SimpleGUICS2Pygame_simpleguics2pygame_frame</title><style>.edge>path:hover{stroke-width:8}</style>
<path fill="none" stroke="#000000" d="M893.5971,-185.1949C873.7131,-180.8924 852.1368,-176.35 832.1712,-172.4092 738.1874,-153.8584 630.0848,-134.8505 556.2609,-122.2223"/>
<polygon fill="#b83d3d" stroke="#000000" points="556.523,-118.7164 546.0765,-120.4834 555.3448,-125.6166 556.523,-118.7164"/>
</g>
</g>
</svg>
